{"glyphs":{"0":{"ha":213,"x_min":0,"x_max":0,"o":"m 104 912 b 88 931 98 920 93 926 l 88 563 l 32 516 b 88 365 56 490 84 442 l 88 89 b 104 29 88 63 95 42 m 144 757 b 116 894 144 822 131 866 l 116 25 l 144 49 m 116 993 b 199 803 116 993 199 942 l 199 81 l 103 0 b 32 103 68 8 32 45 l 32 309 b -51 494 31 475 -51 494 l 5 542 b 32 516 5 542 17 534 l 32 924 l 116 993 "},"1":{"ha":153,"x_min":0,"x_max":0,"o":"m 139 992 l 139 71 l 127 60 l 127 983 m 111 563 l 56 516 b 111 351 80 488 111 436 l 111 46 l 56 0 l 56 304 b -28 494 56 475 -28 494 l 28 542 b 56 516 28 542 41 534 l 56 932 l 0 884 l 0 898 l 111 993 "},"2":{"ha":198,"x_min":0,"x_max":0,"o":"m 84 0 b 14 102 50 8 14 44 l 14 560 l 86 622 l 86 912 b 69 931 80 920 75 926 l 69 753 l 14 707 l 14 924 l 97 993 b 181 807 97 993 179 943 l 181 645 b 212 571 181 605 196 579 l 97 473 l 97 25 l 125 49 l 125 439 l 181 486 l 181 81 l 84 0 m 125 757 b 97 894 125 822 112 866 l 97 631 l 125 654 l 125 757 m 183 560 b 126 641 157 572 132 600 l 97 617 l 97 487 m 86 606 l 69 593 l 69 88 b 86 28 69 61 76 41 "},"3":{"ha":194,"x_min":0,"x_max":0,"o":"m 125 756 b 97 895 125 822 112 866 l 97 660 b 125 634 97 660 110 652 m 125 49 l 125 422 b 97 560 125 488 112 531 l 97 25 m 181 681 l 125 634 b 181 469 149 606 181 554 l 181 81 l 84 0 b 14 102 50 8 14 44 l 14 449 l 69 495 l 69 88 b 86 28 69 61 76 41 l 86 579 b 42 612 64 608 42 612 l 86 649 l 86 912 b 69 929 80 920 75 926 l 69 753 l 14 707 l 14 922 l 97 993 b 181 803 97 993 181 942 "},"4":{"ha":296,"x_min":0,"x_max":0,"o":"m 144 0 l 144 273 l 116 249 l 116 9 l 104 0 l 104 240 l 103 238 b 32 340 68 245 32 282 l 32 591 b -51 781 32 762 -51 781 l 5 829 b 88 638 5 829 88 778 l 88 326 b 104 265 88 300 95 279 l 104 912 l 116 922 l 116 264 l 203 337 b 144 435 172 350 144 384 l 144 946 l 199 993 l 199 421 b 222 353 199 389 209 366 l 282 405 l 282 273 l 227 226 l 227 344 l 199 319 l 199 47 "},"5":{"ha":198,"x_min":0,"x_max":0,"o":"m 69 745 b 86 684 69 719 76 698 l 86 897 l 69 883 l 69 745 m 183 98 b 125 197 153 111 125 146 l 125 691 l 97 668 l 97 25 m 84 0 b 14 102 50 8 14 44 l 14 550 l 69 597 l 69 88 b 86 28 69 61 76 41 l 86 659 l 84 657 b 14 759 50 664 14 701 l 14 947 l 69 994 l 69 900 l 181 994 l 181 868 l 125 822 l 125 929 l 97 906 l 97 682 l 181 753 l 181 212 b 212 108 181 172 196 116 l 84 0 "},"6":{"ha":198,"x_min":0,"x_max":0,"o":"m 181 182 b 212 108 181 142 196 116 l 84 0 b 14 102 50 8 14 44 l 14 946 l 69 992 l 69 898 l 181 992 l 181 867 l 125 819 l 125 931 l 97 907 l 97 684 l 181 753 l 181 182 m 69 660 l 86 674 l 86 898 l 69 884 m 183 97 b 125 197 153 110 125 145 l 125 692 l 97 669 l 97 25 m 69 88 b 86 28 69 61 76 41 l 86 660 l 69 646 l 69 88 "},"7":{"ha":194,"x_min":0,"x_max":0,"o":"m 125 303 b 109 414 125 351 118 388 l 109 9 l 97 0 l 97 441 b 42 493 73 486 42 493 l 97 541 l 97 907 l 14 838 l 14 946 l 69 993 l 69 899 l 181 992 l 181 563 l 125 515 b 181 350 149 487 181 435 l 181 46 l 125 0 m 109 531 b 125 515 113 528 119 522 l 125 932 l 109 918 l 109 531 "},"8":{"ha":194,"x_min":0,"x_max":0,"o":"m 84 0 b 14 102 50 8 14 44 l 14 470 l 72 519 b 14 617 42 531 14 566 l 14 922 l 97 992 b 181 802 97 992 181 941 l 181 596 l 106 534 b 181 350 127 515 181 461 l 181 81 l 84 0 m 69 603 b 86 543 69 576 76 556 l 86 911 b 69 928 80 919 74 925 m 97 541 l 125 564 l 125 756 b 97 892 125 821 112 865 m 69 88 b 86 28 69 61 76 41 l 86 459 b 69 477 80 466 74 472 l 69 88 m 125 49 l 125 303 b 97 441 125 369 112 412 l 97 25 "},"9":{"ha":194,"x_min":0,"x_max":0,"o":"m 86 911 b 69 928 80 918 75 924 l 69 583 b 86 523 69 557 76 536 m 125 544 l 125 756 b 97 892 125 821 112 865 l 97 521 m 84 0 b 14 102 50 8 14 44 l 14 392 l 69 439 l 69 88 b 86 28 69 61 76 41 l 86 453 l 97 462 l 97 25 l 125 49 l 125 530 l 84 495 b 14 598 50 503 14 541 l 14 922 l 97 992 b 181 802 97 992 181 941 l 181 81 l 84 0 "},"Ð":{"ha":213,"x_min":0,"x_max":0,"o":"m 116 514 l 144 514 l 144 756 b 116 894 144 822 131 865 m 103 1 b 32 103 68 8 32 45 b 31 502 32 123 32 385 l -51 502 l -37 514 l 31 514 l 31 558 b -51 748 31 728 -51 748 l 5 794 b 87 605 5 794 87 744 b 88 514 87 605 87 568 l 104 514 l 104 911 b 88 929 98 919 93 925 l 88 817 l 32 770 l 32 883 l 88 929 b 60 946 72 943 60 946 l 116 993 b 199 802 116 993 199 941 l 199 82 l 103 1 m 144 50 l 144 502 l 116 502 l 116 25 m 88 89 b 104 28 88 61 95 42 l 104 502 l 88 502 l 88 89 "},"ð":{"ha":168,"x_min":0,"x_max":0,"o":"m 153 699 b 154 58 153 545 154 58 l 86 1 b 14 103 51 8 14 45 l 14 747 l 89 810 b 66 889 83 844 75 869 l 14 845 l 14 860 l 61 899 b 14 951 39 942 14 951 l 64 993 b 110 940 64 993 87 984 l 153 977 l 153 962 l 116 931 b 153 699 135 888 153 816 m 98 25 b 97 699 98 105 97 497 b 91 797 97 737 95 770 l 71 780 l 71 89 b 93 21 71 57 80 34 "},"Ł":{"ha":211,"x_min":0,"x_max":0,"o":"m 198 241 b 229 167 198 201 213 175 l 218 156 l 198 141 l 198 47 l 142 0 l 142 94 l 103 60 l 103 572 l 88 558 l 87 47 l 31 0 l 32 512 l 8 492 l 8 506 l 32 525 l 32 647 b -51 837 32 817 -51 837 l 5 884 b 31 859 5 884 16 876 l 31 944 l 87 992 l 87 905 l 32 859 b 88 693 57 831 88 779 l 88 573 l 103 586 l 103 968 l 115 977 l 115 596 l 147 624 l 147 609 l 115 581 l 115 82 l 203 156 b 142 256 172 169 142 204 l 142 436 l 198 484 l 198 241 "},"ł":{"ha":83,"x_min":0,"x_max":0,"o":"m 111 547 l 69 512 l 69 47 l 14 0 l 14 465 l -28 431 l -28 444 l 14 479 l 14 944 l 69 992 l 69 527 l 111 561 "},"Š":{"ha":193,"x_min":0,"x_max":0,"o":"m 14 1176 l 14 1190 l 97 1120 l 181 1190 l 181 1176 l 97 1105 m 69 734 b 86 674 69 707 76 686 l 86 957 l 69 943 m 183 97 b 125 196 153 110 125 145 l 125 584 b 105 663 125 617 118 648 l 97 656 l 97 25 m 84 0 b 14 102 50 8 14 44 l 14 556 l 69 602 l 69 88 b 86 27 69 61 76 41 l 86 647 l 84 646 b 14 748 51 653 14 690 l 14 911 l 110 992 b 181 889 145 984 181 947 l 181 784 l 125 736 l 125 904 b 103 971 125 935 116 959 l 97 966 l 97 670 l 113 684 b 181 569 148 677 181 627 l 181 182 b 212 108 181 142 194 116 l 84 0 "},"š":{"ha":171,"x_min":0,"x_max":0,"o":"m 153 978 l 83 919 l 14 978 l 14 992 l 83 933 l 153 992 m 84 0 b 14 102 50 8 14 44 l 14 468 l 69 515 l 69 88 b 97 16 69 51 82 25 l 97 521 b 79 600 97 553 90 584 l 14 545 l 14 747 l 69 794 l 69 606 l 86 620 b 103 613 91 619 97 617 b 69 747 80 654 69 747 l 125 793 b 181 641 125 793 144 641 l 125 594 l 124 594 b 153 506 141 573 153 542 l 153 58 l 97 10 l 84 0 "},"Ý":{"ha":225,"x_min":0,"x_max":0,"o":"m 44 1050 l 211 1191 l 211 1176 l 44 1036 m 103 0 b 32 102 69 8 32 44 l 32 304 b -51 495 32 475 -51 495 l 5 542 b 88 352 5 542 88 491 l 88 88 b 110 21 88 56 98 32 l 116 25 l 116 527 b 44 591 84 575 44 591 l 44 633 b -39 823 44 803 -39 823 l 16 870 b 44 845 16 870 29 862 l 44 944 l 100 992 l 100 891 l 44 845 b 100 679 68 817 100 765 l 100 639 b 116 626 100 639 106 634 l 116 981 l 127 992 l 127 615 b 155 583 137 606 146 596 l 155 944 l 211 992 l 211 618 l 161 576 b 211 422 186 539 211 488 l 211 91 l 155 44 l 103 0 m 155 376 b 127 506 155 432 144 475 l 127 35 l 155 59 "},"ý":{"ha":167,"x_min":0,"x_max":0,"o":"m 153 962 l 14 845 l 14 860 l 153 977 m 98 -197 b 15 1 98 -27 15 1 l 31 15 l 97 71 l 97 97 b 14 201 60 97 14 137 l 14 748 l 69 795 l 69 188 b 97 115 69 150 82 125 l 97 748 l 153 795 l 153 69 l 101 24 b 153 -152 125 0 153 -52 l 98 -197 m 81 42 b 97 28 86 39 91 35 l 97 57 "},"Þ":{"ha":212,"x_min":0,"x_max":0,"o":"m 201 384 b 144 483 171 397 144 432 l 144 729 l 116 706 l 116 311 m 116 297 l 116 9 l 104 0 l 104 697 l 36 639 b 88 479 59 611 88 559 l 88 47 l 32 0 l 32 432 b -51 623 32 602 -51 623 l 5 669 b 32 645 5 669 16 662 l 32 946 l 88 992 l 88 697 l 199 791 l 199 469 b 230 395 199 428 213 403 "},"þ":{"ha":167,"x_min":0,"x_max":0,"o":"m 97 535 l 69 510 l 69 168 l 97 145 m 153 47 l 97 0 l 97 74 b 69 152 96 102 86 130 l 69 -98 l 14 -146 l 14 748 l 69 795 l 69 525 l 153 596 "},"Ž":{"ha":198,"x_min":0,"x_max":0,"o":"m 23 1176 l 23 1190 l 106 1120 l 190 1190 l 190 1176 l 106 1105 m 41 0 l 23 0 l 102 506 l 23 440 l 23 554 b -60 744 23 725 -60 744 l -5 792 b 79 601 -5 792 79 740 l 79 501 l 104 523 l 176 979 l 23 851 l 23 944 l 79 991 l 79 912 l 174 992 l 190 992 l 118 535 l 190 595 l 190 297 b 221 223 190 258 205 231 l 205 209 b 134 313 171 218 134 255 l 134 534 l 116 519 l 37 10 l 190 141 l 190 47 l 134 0 l 134 80 "},"ž":{"ha":167,"x_min":0,"x_max":0,"o":"m 153 978 l 83 919 l 14 978 l 14 992 l 83 933 l 153 992 m 98 -197 b 15 1 98 -27 15 1 l 97 71 l 97 302 b 14 493 97 472 14 493 l 97 564 l 97 734 l 69 711 l 69 620 l 14 574 l 14 748 l 69 795 l 69 725 l 153 795 l 153 596 l 97 549 l 79 532 b 153 352 101 515 153 461 l 153 47 l 112 12 b 153 -152 132 -16 153 -66 l 98 -197 m 81 42 b 97 28 86 39 91 35 l 97 57 "},"½":{"ha":200,"x_min":0,"x_max":0,"o":"m 47 581 l 47 954 l 14 926 l 14 936 l 81 993 l 81 610 m 25 0 l 14 0 l 175 992 l 186 992 m 131 194 l 131 54 b 147 10 131 32 138 17 l 147 153 l 181 182 l 181 28 l 147 0 l 147 8 l 139 1 b 97 63 119 6 97 28 l 97 178 l 147 221 l 147 270 b 131 352 147 309 140 334 l 131 293 l 97 265 l 97 384 l 131 412 b 181 297 134 410 181 378 l 181 237 "},"¼":{"ha":200,"x_min":0,"x_max":0,"o":"m 47 581 l 47 954 l 14 926 l 14 936 l 81 993 l 81 610 m 25 0 l 14 0 l 175 992 l 186 992 m 181 414 l 181 28 l 147 0 l 147 153 l 139 146 b 97 207 119 150 97 172 l 97 384 l 131 412 l 131 199 b 147 155 131 177 138 162 l 147 385 "},"¾":{"ha":200,"x_min":0,"x_max":0,"o":"m 25 0 l 14 0 l 175 992 l 186 992 m 97 834 l 69 811 b 97 719 83 793 97 764 l 97 609 l 64 581 l 64 588 l 57 581 b 14 644 36 586 14 608 l 14 720 l 47 749 l 47 634 b 64 591 47 612 56 597 l 64 690 b 14 804 64 793 14 804 l 47 832 b 64 817 47 832 54 828 l 64 850 b 47 932 64 889 57 916 l 47 874 l 14 845 l 14 964 l 47 992 b 97 878 47 992 97 958 m 181 414 l 181 28 l 147 0 l 147 153 l 139 146 b 97 207 119 150 97 172 l 97 384 l 131 412 l 131 199 b 147 155 131 177 138 162 l 147 385 "},"¦":{"ha":83,"x_min":0,"x_max":0,"o":"m 14 491 l 14 947 l 69 993 l 69 538 m 69 500 l 69 45 l 14 -2 l 14 454 "},"−":{"ha":194,"x_min":0,"x_max":0,"o":"m 167 502 l 14 502 l 28 514 l 181 514 "},"×":{"ha":191,"x_min":0,"x_max":0,"o":"m 170 433 l 96 508 l 21 433 l 14 440 l 89 515 l 14 590 l 21 597 l 96 522 l 170 597 l 177 590 l 102 515 l 177 440 "}," ":{"ha":154,"x_min":0,"x_max":0,"o":""},"!":{"ha":83,"x_min":0,"x_max":0,"o":"m 69 247 l 14 199 l 14 946 l 69 992 m 69 46 l 14 0 l 14 94 l 69 140 "},"\"":{"ha":156,"x_min":0,"x_max":0,"o":"m 120 875 l 87 846 l 87 947 l 142 993 m 49 875 l 14 846 l 14 947 l 69 993 "},"#":{"ha":250,"x_min":0,"x_max":0,"o":"m 153 542 l 109 542 l 97 480 l 141 480 m 164 542 l 153 480 l 236 480 l 236 471 l 150 471 l 95 177 l 83 177 l 140 471 l 95 471 l 39 177 l 28 177 l 83 471 l 14 471 l 14 480 l 86 480 l 97 542 l 14 542 l 14 551 l 100 551 l 155 845 l 167 845 l 110 551 l 155 551 l 211 845 l 222 845 l 167 551 l 236 551 l 236 542 "},"$":{"ha":194,"x_min":0,"x_max":0,"o":"m 86 622 b 103 615 91 620 97 618 b 71 736 86 647 75 711 l 69 735 l 69 608 l 86 622 m 86 179 l 84 178 b 14 281 50 186 14 223 l 14 469 l 69 516 l 69 266 b 91 199 69 235 79 211 l 97 205 l 97 522 b 76 602 97 556 89 588 l 14 549 l 14 748 l 69 795 l 69 747 l 86 760 l 86 970 l 97 981 l 97 771 l 125 794 b 181 642 125 794 144 642 l 125 595 l 124 595 b 153 507 141 574 153 542 l 153 236 l 97 190 l 97 12 l 86 0 "},"%":{"ha":200,"x_min":0,"x_max":0,"o":"m 97 616 l 57 581 b 14 642 36 586 14 608 l 14 964 l 15 965 l 14 965 l 47 993 b 97 880 47 993 97 963 m 25 0 l 14 0 l 175 992 l 186 992 m 47 634 b 64 591 47 612 54 597 l 64 852 b 47 934 64 891 57 917 l 47 634 m 181 34 l 139 -1 b 97 60 119 3 97 25 l 97 382 l 98 383 l 97 383 l 131 411 b 181 297 131 411 181 381 m 131 52 b 147 8 131 30 138 15 l 147 269 b 131 352 147 309 140 334 l 131 52 "},"&":{"ha":250,"x_min":0,"x_max":0,"o":"m 236 58 l 168 0 b 101 73 140 6 110 32 l 14 0 l 14 529 l 69 576 b 14 628 45 622 14 628 l 14 944 l 69 992 l 69 898 l 181 992 l 181 654 l 126 608 b 153 485 141 578 153 538 l 153 132 l 181 155 l 181 549 l 236 595 m 125 931 l 97 907 l 97 650 b 125 610 106 640 116 626 m 69 676 b 86 662 71 675 78 670 l 86 898 l 69 884 m 98 86 b 97 102 97 91 97 96 l 97 439 b 69 575 97 503 84 547 l 69 61 m 153 88 b 181 16 153 51 166 25 l 181 140 l 153 117 l 153 88 "},"'":{"ha":83,"x_min":0,"x_max":0,"o":"m 49 875 l 14 846 l 14 947 l 69 993 "},"(":{"ha":148,"x_min":0,"x_max":0,"o":"m 125 -2 b 44 219 90 60 64 134 b 14 495 24 307 14 399 b 44 772 14 591 24 685 b 125 993 63 856 90 931 l 134 988 b 54 770 101 926 74 853 b 25 495 35 683 25 591 b 54 221 25 400 35 308 b 134 2 74 138 101 65 "},")":{"ha":148,"x_min":0,"x_max":0,"o":"m 14 2 b 94 221 49 65 75 138 b 124 495 113 308 124 400 b 94 770 124 591 113 683 b 14 988 75 853 49 926 l 24 993 b 105 772 59 931 86 856 b 134 495 125 685 134 591 b 105 219 134 399 125 307 b 23 -2 86 134 58 60 "},"*":{"ha":250,"x_min":0,"x_max":0,"o":"m 236 876 l 137 876 l 206 806 l 199 799 l 130 869 l 130 770 l 119 770 l 119 869 l 50 799 l 43 806 l 112 876 l 14 876 l 14 885 l 112 885 l 43 956 l 50 962 l 119 892 l 119 992 l 130 992 l 130 892 l 199 962 l 206 956 l 137 885 l 236 885 "},"+":{"ha":250,"x_min":0,"x_max":0,"o":"m 236 510 l 130 510 l 130 404 l 119 404 l 119 510 l 14 510 l 14 520 l 119 520 l 119 626 l 130 626 l 130 520 l 236 520 "},",":{"ha":83,"x_min":0,"x_max":0,"o":"m 14 0 l 14 75 l 69 122 l 69 80 "},"-":{"ha":139,"x_min":0,"x_max":0,"o":"m 111 502 l 14 502 l 28 514 l 125 514 "},".":{"ha":83,"x_min":0,"x_max":0,"o":"m 69 46 l 14 0 l 14 75 l 69 122 "},"/":{"ha":200,"x_min":0,"x_max":0,"o":"m 25 0 l 14 0 l 175 992 l 186 992 "},":":{"ha":84,"x_min":0,"x_max":0,"o":"m 71 443 l 14 397 l 15 471 l 71 519 m 69 46 l 14 0 l 14 75 l 69 122 "},";":{"ha":84,"x_min":0,"x_max":0,"o":"m 71 443 l 14 397 l 15 471 l 71 519 m 14 0 l 14 75 l 69 122 l 69 80 "},"<":{"ha":167,"x_min":0,"x_max":0,"o":"m 153 619 l 29 495 l 153 373 l 153 356 l 14 495 l 153 634 "},"=":{"ha":250,"x_min":0,"x_max":0,"o":"m 236 542 l 14 542 l 14 551 l 236 551 m 236 471 l 14 471 l 14 480 l 236 480 "},">":{"ha":167,"x_min":0,"x_max":0,"o":"m 14 373 l 138 495 l 14 619 l 14 634 l 153 495 l 14 356 "},"?":{"ha":250,"x_min":0,"x_max":0,"o":"m 181 904 b 157 973 181 938 170 962 l 125 946 l 125 495 b 142 449 132 483 138 468 l 144 449 l 181 481 m 97 325 b 14 515 97 495 14 515 l 69 563 b 113 516 69 563 91 549 l 113 936 l 97 922 l 97 704 l 42 656 l 42 946 l 97 992 l 97 935 l 166 992 b 236 890 200 985 236 948 l 236 514 l 146 438 b 153 372 150 418 153 396 l 153 245 l 97 199 m 153 140 l 153 46 l 97 0 l 97 94 "},"@":{"ha":352,"x_min":0,"x_max":0,"o":"m 102 0 b 31 102 67 8 31 44 b 32 589 31 162 32 589 b -51 780 32 759 -51 780 l 5 826 b 32 802 5 826 17 819 l 32 884 l 88 932 l 88 853 l 255 993 b 338 803 255 993 338 942 l 338 118 l 199 1 l 199 108 l 186 97 b 116 199 152 104 116 141 l 116 542 l 199 612 l 199 679 l 186 669 b 116 771 152 676 116 713 l 116 809 l 184 867 b 255 765 219 859 255 823 l 255 63 l 282 86 l 282 756 b 211 942 282 888 233 929 l 88 838 l 37 795 b 88 637 60 767 88 716 b 87 88 88 637 87 98 b 109 21 87 56 96 32 l 171 73 l 171 59 l 102 0 m 171 757 b 199 684 171 720 184 694 l 199 779 b 171 851 199 816 186 841 l 171 757 m 171 185 b 199 112 171 148 184 123 l 199 598 l 171 574 l 171 185 "},"A":{"ha":306,"x_min":0,"x_max":0,"o":"m 292 992 l 292 71 l 280 60 l 280 981 m 181 493 b 208 468 181 493 193 485 l 208 874 l 144 462 l 181 493 m 264 515 l 208 468 b 264 303 233 440 264 388 l 264 47 l 208 0 l 208 256 b 140 440 208 381 163 425 l 81 72 l 153 132 l 153 49 l 97 1 l 97 71 l 14 0 l 14 152 l 69 198 l 69 67 l 204 927 l 125 860 l 125 944 l 181 992 l 181 921 l 264 992 "},"B":{"ha":213,"x_min":0,"x_max":0,"o":"m 116 595 b 144 569 116 595 128 588 l 144 931 l 116 907 l 116 595 m 104 586 l 104 897 l 32 837 b 88 672 57 809 88 757 l 88 572 m 103 0 b 32 103 68 8 32 45 l 32 625 b -51 816 32 795 -51 816 l 5 862 b 32 837 5 862 17 854 l 32 946 l 88 992 l 88 898 l 199 992 l 199 616 l 145 569 b 199 405 168 542 199 490 l 199 81 l 103 0 m 104 514 b 88 532 98 522 94 528 l 88 88 b 104 28 88 61 95 41 m 144 358 b 116 495 144 424 131 468 l 116 25 l 144 49 "},"C":{"ha":194,"x_min":0,"x_max":0,"o":"m 125 747 l 125 904 b 103 971 125 936 116 959 l 97 966 l 97 25 l 125 49 l 125 396 l 181 443 l 181 81 l 84 0 b 14 102 50 8 14 44 l 14 910 l 111 992 b 181 890 145 984 181 948 l 181 794 m 86 956 l 69 943 l 69 88 b 86 28 69 61 76 41 "},"D":{"ha":213,"x_min":0,"x_max":0,"o":"m 144 755 b 116 892 144 821 131 863 l 116 25 l 144 49 l 144 755 m 103 0 b 32 102 68 8 32 44 l 32 558 b -51 747 32 728 -51 747 l 5 793 b 88 604 5 793 88 743 l 88 88 b 104 28 88 61 95 41 l 104 911 b 88 928 98 918 93 924 l 88 816 l 32 770 l 32 882 l 88 928 b 60 944 73 942 60 944 l 116 992 b 199 802 116 992 199 941 l 199 81 l 103 0 "},"E":{"ha":213,"x_min":0,"x_max":0,"o":"m 104 897 l 88 883 l 88 524 l 104 538 m 104 524 l 32 464 b 88 299 57 436 88 384 l 88 61 l 104 75 m 144 94 l 32 0 l 32 252 b -51 442 32 422 -51 442 l 5 490 b 32 464 5 490 17 481 l 32 944 l 88 992 l 88 898 l 199 992 l 199 794 l 144 748 l 144 931 l 116 906 l 116 549 l 171 595 l 171 520 l 116 473 l 116 84 l 144 108 l 144 199 l 199 245 l 199 47 l 144 0 "},"F":{"ha":213,"x_min":0,"x_max":0,"o":"m 104 897 l 88 883 l 88 524 l 104 538 m 32 0 l 32 252 b -51 442 32 422 -51 442 l 5 490 b 32 464 5 490 17 481 l 32 944 l 88 992 l 88 898 l 199 992 l 199 794 l 144 748 l 144 931 l 116 906 l 116 549 l 171 595 l 171 520 l 116 473 l 116 71 l 104 60 l 104 524 l 32 464 b 88 299 57 436 88 384 l 88 46 "},"G":{"ha":194,"x_min":0,"x_max":0,"o":"m 125 0 l 125 35 l 84 0 b 14 102 50 8 14 44 l 14 911 l 110 992 b 181 890 145 984 181 948 l 181 795 l 125 749 l 125 904 b 103 971 125 936 116 959 l 97 966 l 97 524 l 181 595 l 181 47 m 69 943 l 69 88 b 86 28 69 61 76 41 l 86 957 m 125 49 l 125 534 l 97 510 l 97 24 l 98 25 "},"H":{"ha":194,"x_min":0,"x_max":0,"o":"m 181 992 l 181 47 l 125 0 l 125 582 l 97 582 l 97 71 l 86 60 l 86 582 l 69 582 l 69 47 l 14 0 l 14 944 l 69 992 l 69 594 l 86 594 l 86 912 l 97 921 l 97 594 l 125 594 l 125 944 "},"I":{"ha":130,"x_min":0,"x_max":0,"o":"m 116 920 l 116 10 l 103 0 b 32 102 68 8 32 44 l 32 654 b -51 844 32 824 -51 844 l 5 891 b 32 866 5 891 17 883 l 32 944 l 88 992 l 88 912 l 32 865 b 88 700 57 837 88 785 l 88 88 b 104 28 88 61 95 41 l 104 911 "},"J":{"ha":213,"x_min":0,"x_max":0,"o":"m 199 920 l 199 141 l 188 131 l 188 910 m 32 292 b -51 483 32 462 -51 483 l 5 529 b 32 503 5 529 17 521 l 32 549 l 88 595 l 88 515 l 49 483 b 88 339 68 451 88 405 l 88 61 l 117 86 b 116 102 116 90 116 96 l 116 653 b 32 843 116 823 32 843 l 88 890 b 116 865 88 890 101 882 l 116 943 l 171 991 l 171 911 l 116 865 b 171 699 140 837 171 785 l 171 117 l 32 0 "},"K":{"ha":212,"x_min":0,"x_max":0,"o":"m 144 356 b 116 494 144 422 131 465 l 116 10 l 104 0 l 104 512 b 88 530 98 520 93 525 l 88 47 l 32 0 l 32 634 b -51 824 32 804 -51 824 l 5 872 b 32 846 5 872 17 863 l 32 946 l 88 992 l 88 885 l 36 841 b 88 682 60 813 88 762 l 88 569 l 104 583 l 104 965 l 116 975 l 116 594 l 201 666 b 144 764 171 678 144 713 l 144 946 l 199 992 l 199 750 b 230 676 199 711 214 684 l 214 662 l 125 587 b 199 403 146 568 199 514 l 199 47 l 144 0 "},"L":{"ha":212,"x_min":0,"x_max":0,"o":"m 199 141 l 199 47 l 144 0 l 144 94 l 104 60 l 104 968 l 116 977 l 116 82 l 203 156 b 144 256 172 169 144 204 l 144 436 l 199 484 l 199 241 b 230 167 199 201 213 175 l 218 156 m 32 859 b 88 693 57 831 88 779 l 88 47 l 32 0 l 32 647 b -51 837 32 817 -51 837 l 5 884 b 32 859 5 884 17 876 l 32 944 l 88 992 l 88 905 "},"M":{"ha":324,"x_min":0,"x_max":0,"o":"m 255 929 l 227 906 l 227 71 l 215 60 l 215 897 l 199 883 l 199 47 l 144 0 l 144 929 l 116 906 l 116 71 l 104 60 l 104 897 l 88 883 l 35 838 b 88 676 59 810 88 758 l 88 47 l 32 0 l 32 628 b -51 819 32 799 -51 819 l 5 866 b 32 841 5 866 17 859 l 32 944 l 88 992 l 88 898 l 144 944 l 199 992 l 199 898 l 255 944 l 310 992 l 310 47 l 255 0 "},"N":{"ha":213,"x_min":0,"x_max":0,"o":"m 144 929 l 116 906 l 116 71 l 104 60 l 104 897 l 88 883 l 35 838 b 88 676 59 810 88 758 l 88 47 l 32 0 l 32 628 b -51 819 32 799 -51 819 l 5 866 b 32 841 5 866 17 859 l 32 944 l 88 992 l 88 898 l 199 992 l 199 47 l 144 0 "},"O":{"ha":194,"x_min":0,"x_max":0,"o":"m 84 0 b 14 102 50 8 14 44 l 14 910 l 110 992 b 181 889 145 984 181 947 l 181 81 l 84 0 m 125 904 b 103 971 125 935 116 958 l 97 966 l 97 25 l 125 49 m 69 88 b 86 28 69 61 76 41 l 86 956 l 69 942 l 69 88 "},"P":{"ha":212,"x_min":0,"x_max":0,"o":"m 201 586 b 144 684 171 598 144 633 l 144 931 l 116 907 l 116 513 m 116 499 l 116 9 l 104 0 l 104 898 l 37 840 b 88 681 60 813 88 762 l 88 47 l 32 0 l 32 633 b -51 824 32 803 -51 824 l 5 870 b 32 846 5 870 17 863 l 32 946 l 88 992 l 88 898 l 199 992 l 199 670 b 230 596 199 630 214 604 "},"Q":{"ha":277,"x_min":0,"x_max":0,"o":"m 125 35 l 84 0 b 14 103 50 8 14 45 l 14 911 l 110 992 b 181 890 145 985 181 948 l 181 -59 l 266 14 b 208 112 236 27 208 61 l 208 411 l 264 458 l 264 97 b 295 23 264 58 279 31 l 279 9 l 181 -73 l 125 -120 m 125 49 l 125 904 b 103 972 125 936 116 959 l 97 966 l 97 25 m 69 89 b 86 28 69 61 76 42 l 86 957 l 69 943 "},"R":{"ha":244,"x_min":0,"x_max":0,"o":"m 201 586 b 144 684 171 598 144 633 l 144 931 l 116 907 l 116 513 m 104 503 l 104 898 l 37 840 b 88 681 60 813 88 762 l 88 490 m 227 89 b 258 15 227 49 242 23 l 242 1 b 171 103 207 8 171 45 l 171 300 b 116 473 171 404 140 451 l 116 9 l 104 0 l 104 481 b 88 490 95 487 89 490 l 88 47 l 32 0 l 32 633 b -51 824 32 803 -51 824 l 5 870 b 32 846 5 870 17 863 l 32 946 l 88 992 l 88 898 l 199 992 l 199 670 b 230 596 199 630 214 604 l 153 530 b 227 346 174 512 227 457 l 227 89 "},"S":{"ha":193,"x_min":0,"x_max":0,"o":"m 69 734 b 86 674 69 707 76 686 l 86 957 l 69 943 m 183 97 b 125 196 153 110 125 145 l 125 584 b 105 663 125 617 118 648 l 97 656 l 97 25 m 84 0 b 14 102 50 8 14 44 l 14 556 l 69 602 l 69 88 b 86 27 69 61 76 41 l 86 647 l 84 646 b 14 748 51 653 14 690 l 14 911 l 110 992 b 181 889 145 984 181 947 l 181 784 l 125 736 l 125 904 b 103 971 125 935 116 959 l 97 966 l 97 670 l 113 684 b 181 569 148 677 181 627 l 181 182 b 212 108 181 142 194 116 l 84 0 "},"T":{"ha":278,"x_min":0,"x_max":0,"o":"m 97 0 l 98 755 b 15 944 98 925 15 944 l 71 992 l 264 992 l 264 763 l 208 715 l 208 944 l 251 980 l 181 980 l 181 71 l 169 60 l 169 980 l 84 980 b 154 801 109 958 154 904 l 153 47 m 14 846 l 69 892 l 69 763 l 14 715 "},"U":{"ha":244,"x_min":0,"x_max":0,"o":"m 214 0 b 157 46 192 5 170 21 l 119 14 l 103 0 b 32 102 68 8 32 44 l 32 634 b -51 824 32 804 -51 824 l 5 872 b 32 846 5 872 17 863 l 32 946 l 88 992 l 88 891 l 34 845 b 88 681 58 817 88 765 l 88 88 b 104 27 88 61 95 39 l 104 981 l 116 992 l 116 25 l 153 57 b 144 102 147 69 144 84 l 144 946 l 199 992 l 199 88 b 230 14 199 49 214 22 l 214 0 "},"V":{"ha":213,"x_min":0,"x_max":0,"o":"m 103 0 b 32 102 68 8 32 44 l 32 634 b -51 824 32 804 -51 824 l 5 872 b 32 846 5 872 17 863 l 32 944 l 88 992 l 88 891 l 34 845 b 88 681 58 817 88 765 l 88 88 b 104 27 88 61 95 41 l 104 981 l 116 992 l 116 25 l 144 49 l 144 944 l 199 992 l 199 81 l 103 0 "},"W":{"ha":296,"x_min":0,"x_max":0,"o":"m 214 0 b 157 46 192 5 170 21 l 119 14 l 103 0 b 32 102 68 8 32 44 l 32 634 b -51 824 32 804 -51 824 l 5 872 b 32 846 5 872 17 863 l 32 946 l 88 992 l 88 891 l 34 845 b 88 681 58 817 88 765 l 88 88 b 104 27 88 61 95 39 l 104 981 l 116 992 l 116 25 l 153 57 b 144 102 147 69 144 84 l 144 946 l 199 992 l 199 88 b 221 21 199 56 208 32 l 227 25 l 227 943 l 282 990 l 282 58 l 214 0 "},"X":{"ha":213,"x_min":0,"x_max":0,"o":"m 144 584 b 199 424 171 547 199 494 l 199 47 l 144 0 l 144 377 b 116 507 144 433 132 476 l 116 9 l 104 0 l 104 528 b 32 593 72 576 32 593 l 32 634 b -51 824 32 804 -51 824 l 5 872 b 32 846 5 872 17 863 l 32 946 l 88 992 l 88 890 l 34 845 b 88 681 58 817 88 765 l 88 640 b 104 627 88 640 94 635 l 104 983 l 116 992 l 116 616 b 144 584 124 608 133 597 l 144 944 l 199 992 l 199 631 m 32 502 l 88 549 l 88 47 l 32 0 "},"Y":{"ha":225,"x_min":0,"x_max":0,"o":"m 103 0 b 32 102 68 8 32 44 l 32 304 b -51 495 32 475 -51 495 l 5 542 b 88 352 5 542 88 491 l 88 88 b 110 21 88 56 97 32 l 116 25 l 116 527 b 44 591 83 575 44 591 l 44 633 b -39 823 44 803 -39 823 l 16 870 b 44 845 16 870 29 862 l 44 944 l 100 992 l 100 891 l 44 845 b 100 679 68 817 100 765 l 100 639 b 116 626 100 639 106 634 l 116 981 l 127 992 l 127 615 b 155 583 135 606 146 596 l 155 944 l 211 992 l 211 618 l 161 576 b 211 422 186 539 211 488 l 211 91 l 155 44 l 103 0 m 155 376 b 127 506 155 432 144 475 l 127 35 l 155 59 "},"Z":{"ha":198,"x_min":0,"x_max":0,"o":"m 41 0 l 23 0 l 102 506 l 23 440 l 23 554 b -60 744 23 725 -60 744 l -5 792 b 79 601 -5 792 79 740 l 79 501 l 104 523 l 175 979 l 23 851 l 23 944 l 79 991 l 79 912 l 172 992 l 190 992 l 118 535 l 190 595 l 190 297 b 221 223 190 258 205 231 l 205 209 b 134 313 170 218 134 255 l 134 534 l 116 519 l 36 10 l 190 141 l 190 47 l 134 0 l 134 80 "},"[":{"ha":117,"x_min":0,"x_max":0,"o":"m 14 992 l 103 992 l 103 981 l 25 981 l 25 10 l 103 10 l 103 0 l 14 0 "},"\\":{"ha":200,"x_min":0,"x_max":0,"o":"m 14 992 l 25 992 l 186 0 l 175 0 "},"]":{"ha":117,"x_min":0,"x_max":0,"o":"m 103 0 l 14 0 l 14 10 l 91 10 l 91 981 l 14 981 l 14 992 l 103 992 "},"^":{"ha":194,"x_min":0,"x_max":0,"o":"m 181 921 l 181 907 l 97 978 l 14 907 l 14 921 l 97 992 "},"_":{"ha":222,"x_min":0,"x_max":0,"o":"m 222 -44 l 0 -44 l 0 -35 l 222 -35 "},"`":{"ha":194,"x_min":0,"x_max":0,"o":"m 181 837 l 14 978 l 14 992 l 181 852 "},"a":{"ha":167,"x_min":0,"x_max":0,"o":"m 82 794 b 153 691 117 786 153 749 l 153 58 l 84 0 b 14 102 50 8 14 44 l 14 469 l 97 539 l 97 606 l 84 595 b 14 698 50 603 14 640 l 14 736 l 82 794 m 69 683 b 97 611 69 646 82 622 l 97 706 b 69 778 97 742 84 767 l 69 683 m 69 88 b 97 16 69 51 82 25 l 97 524 l 69 501 l 69 88 "},"b":{"ha":167,"x_min":0,"x_max":0,"o":"m 84 0 b 14 102 50 8 14 44 l 14 944 l 69 992 l 69 782 l 82 794 b 153 691 117 786 153 749 l 153 58 l 97 10 l 84 0 m 69 88 b 97 16 69 51 82 25 l 97 706 b 69 778 97 742 84 767 l 69 88 "},"c":{"ha":167,"x_min":0,"x_max":0,"o":"m 97 549 l 97 706 b 69 778 97 742 84 767 l 69 88 b 97 16 69 51 82 25 l 97 198 l 153 245 l 153 58 l 84 0 b 14 102 50 8 14 44 l 14 736 l 82 794 b 153 691 117 786 153 749 l 153 595 "},"d":{"ha":167,"x_min":0,"x_max":0,"o":"m 84 0 b 14 103 50 8 14 45 l 14 747 l 89 809 b 14 950 67 931 14 950 l 63 992 b 153 699 63 992 153 958 l 153 58 m 69 88 b 91 21 69 56 80 32 l 97 25 l 97 699 b 90 796 97 737 95 770 l 69 779 l 69 88 "},"e":{"ha":167,"x_min":0,"x_max":0,"o":"m 84 0 b 14 102 50 8 14 44 l 14 736 l 69 782 l 82 793 b 153 682 117 786 153 740 l 153 434 l 69 363 l 69 88 b 97 16 69 51 82 25 l 97 196 l 153 243 l 153 58 l 84 0 m 97 705 b 69 778 97 742 84 767 l 69 378 l 97 402 l 97 705 "},"f":{"ha":83,"x_min":0,"x_max":0,"o":"m 82 992 b 153 890 117 985 153 948 l 153 858 l 97 811 l 97 904 b 69 977 97 941 84 966 l 69 796 l 153 796 l 153 744 l 97 698 l 97 749 l 138 784 l 69 784 l 69 47 l 14 0 l 14 784 l -29 784 l -14 796 l 14 796 l 14 935 l 82 992 "},"g":{"ha":167,"x_min":0,"x_max":0,"o":"m 153 49 l 110 13 b 153 -152 131 -15 153 -65 l 97 -197 b 14 1 97 -27 14 1 l 97 71 l 97 109 l 84 98 b 14 200 50 105 14 142 l 14 736 l 82 794 b 153 691 117 786 153 749 m 69 186 b 97 115 69 149 82 124 l 97 706 b 69 778 97 743 84 767 l 69 186 m 97 56 l 80 42 b 97 28 84 39 90 35 "},"h":{"ha":167,"x_min":0,"x_max":0,"o":"m 82 792 b 153 690 117 785 153 748 l 153 47 l 97 0 l 97 704 b 69 777 97 741 84 766 l 69 47 l 14 0 l 14 944 l 69 992 l 69 781 l 82 792 "},"i":{"ha":83,"x_min":0,"x_max":0,"o":"m 69 841 l 14 795 l 14 869 l 69 917 m 69 47 l 14 0 l 14 749 l 69 795 "},"j":{"ha":83,"x_min":0,"x_max":0,"o":"m 69 841 l 14 794 l 14 869 l 69 916 m 69 -94 l 14 -141 l 14 748 l 69 795 "},"k":{"ha":167,"x_min":0,"x_max":0,"o":"m 125 596 l 153 549 l 153 47 l 97 0 l 97 501 l 69 549 l 69 47 l 14 0 l 14 944 l 69 992 l 69 749 l 125 795 b 181 644 125 795 144 644 l 125 596 b 69 745 90 596 72 725 l 69 550 "},"l":{"ha":83,"x_min":0,"x_max":0,"o":"m 69 47 l 14 0 l 14 944 l 69 992 "},"m":{"ha":250,"x_min":0,"x_max":0,"o":"m 181 735 l 153 711 l 153 47 l 97 0 l 97 735 l 69 711 l 69 47 l 14 0 l 14 749 l 69 796 l 69 726 l 153 796 l 153 726 l 236 796 l 236 47 l 181 0 "},"n":{"ha":167,"x_min":0,"x_max":0,"o":"m 97 735 l 69 711 l 69 47 l 14 0 l 14 749 l 69 796 l 69 726 l 153 796 l 153 47 l 97 0 "},"o":{"ha":167,"x_min":0,"x_max":0,"o":"m 82 795 b 153 693 117 788 153 751 l 153 58 l 84 0 b 14 102 50 8 14 44 l 14 737 l 82 795 m 69 88 b 97 16 69 51 82 25 l 97 707 b 69 780 97 744 84 770 l 69 88 "},"p":{"ha":167,"x_min":0,"x_max":0,"o":"m 97 734 l 69 709 l 69 168 l 97 145 m 14 -146 l 14 748 l 69 795 l 69 725 l 153 795 l 153 47 l 97 0 l 97 74 b 69 152 96 102 87 130 l 69 -98 "},"q":{"ha":171,"x_min":0,"x_max":0,"o":"m 97 12 l 84 1 b 14 103 50 8 14 45 l 14 736 l 66 780 l 82 794 b 125 769 97 791 112 782 l 125 794 l 181 840 l 181 765 l 145 735 b 153 692 150 722 153 708 l 153 -58 l 208 -12 l 208 -25 l 97 -119 m 69 89 b 97 16 69 52 82 27 l 97 706 b 69 778 97 743 84 769 l 69 89 "},"r":{"ha":167,"x_min":0,"x_max":0,"o":"m 14 0 l 14 749 l 69 796 l 69 726 l 153 796 l 153 645 l 97 597 l 97 735 l 69 711 l 69 47 "},"s":{"ha":171,"x_min":0,"x_max":0,"o":"m 84 0 b 14 102 50 8 14 44 l 14 468 l 69 515 l 69 88 b 97 16 69 51 82 25 l 97 521 b 79 600 97 553 90 584 l 14 545 l 14 747 l 69 794 l 69 606 l 86 620 b 103 613 91 619 97 617 b 69 747 81 654 69 747 l 125 793 b 181 641 125 793 144 641 l 125 594 l 124 594 b 153 506 141 573 153 542 l 153 58 l 97 10 l 84 0 "},"t":{"ha":83,"x_min":0,"x_max":0,"o":"m 153 796 l 153 744 l 97 698 l 97 749 l 138 784 l 69 784 l 69 47 l 14 0 l 14 784 l -29 784 l -14 796 l 14 796 l 14 852 l 69 899 l 69 796 "},"u":{"ha":167,"x_min":0,"x_max":0,"o":"m 97 71 l 14 0 l 14 749 l 69 796 l 69 59 l 97 82 l 97 749 l 153 796 l 153 47 l 97 0 "},"v":{"ha":167,"x_min":0,"x_max":0,"o":"m 84 0 b 14 102 50 8 14 44 l 14 749 l 69 796 l 69 88 b 97 16 69 51 82 25 l 97 749 l 153 796 l 153 58 l 97 10 l 84 0 "},"w":{"ha":250,"x_min":0,"x_max":0,"o":"m 168 0 b 120 31 150 3 134 14 l 84 0 b 14 102 50 8 14 44 l 14 749 l 69 796 l 69 88 b 91 21 69 56 79 32 l 115 39 b 97 102 104 57 97 78 l 97 749 l 153 796 l 153 88 b 181 16 153 51 166 25 l 181 749 l 236 796 l 236 58 l 181 10 l 168 0 "},"x":{"ha":168,"x_min":0,"x_max":0,"o":"m 153 622 l 118 591 b 153 451 137 563 153 517 l 153 47 l 97 0 l 97 404 b 69 547 97 476 84 520 l 69 47 l 14 0 l 14 516 l 64 558 b 14 595 41 593 14 595 l 14 748 l 69 795 l 69 641 b 97 619 69 641 82 635 l 97 748 l 153 795 "},"y":{"ha":167,"x_min":0,"x_max":0,"o":"m 97 -197 b 14 1 97 -27 14 1 l 31 15 l 97 71 l 97 97 b 14 201 60 97 14 137 l 14 748 l 69 795 l 69 188 b 97 115 69 150 82 125 l 97 748 l 153 795 l 153 69 l 101 24 b 153 -152 124 0 153 -52 l 97 -197 m 80 42 b 97 28 84 39 90 35 l 97 57 "},"z":{"ha":167,"x_min":0,"x_max":0,"o":"m 97 -197 b 14 1 97 -27 14 1 l 97 71 l 97 302 b 14 493 97 472 14 493 l 97 564 l 97 734 l 69 711 l 69 620 l 14 574 l 14 748 l 69 795 l 69 725 l 153 795 l 153 596 l 97 549 l 79 532 b 153 352 100 515 152 461 l 153 47 l 111 12 b 153 -152 132 -16 153 -66 l 97 -197 m 80 42 b 97 28 84 39 90 35 l 97 57 "},"{":{"ha":148,"x_min":0,"x_max":0,"o":"m 97 394 l 14 495 l 97 595 l 14 992 l 135 992 l 135 946 l 125 946 l 125 981 l 28 981 l 109 593 l 28 495 l 109 396 l 28 10 l 125 10 l 125 46 l 135 46 l 135 0 l 14 0 "},"|":{"ha":83,"x_min":0,"x_max":0,"o":"m 14 946 l 69 992 l 69 -73 l 14 -120 "},"}":{"ha":149,"x_min":0,"x_max":0,"o":"m 135 0 l 14 0 l 14 46 l 24 46 l 24 10 l 122 10 l 41 396 l 122 495 l 41 593 l 122 981 l 24 981 l 24 946 l 14 946 l 14 992 l 135 992 l 52 595 l 135 495 l 52 394 "},"~":{"ha":274,"x_min":0,"x_max":0,"o":"m 227 479 b 193 470 216 473 205 470 b 174 473 188 470 181 471 b 132 507 156 478 141 490 b 52 529 117 535 81 545 b 24 494 38 522 29 509 l 14 498 b 47 539 19 515 30 530 b 142 512 81 558 124 545 b 177 484 149 498 162 488 b 222 488 192 479 208 481 b 250 524 236 497 245 509 l 260 521 b 227 479 256 503 244 488 "},"Ä":{"ha":306,"x_min":0,"x_max":0,"o":"m 292 1082 l 236 1036 l 236 1145 l 292 1191 m 181 1082 l 125 1036 l 125 1145 l 181 1191 m 292 992 l 292 71 l 280 60 l 280 981 m 181 493 b 208 468 181 493 193 485 l 208 874 l 144 462 l 181 493 m 264 515 l 208 468 b 264 303 233 440 264 388 l 264 47 l 208 0 l 208 256 b 140 440 208 381 163 425 l 81 72 l 153 132 l 153 49 l 97 1 l 97 71 l 14 0 l 14 152 l 69 198 l 69 67 l 204 927 l 125 860 l 125 944 l 181 992 l 181 921 l 264 992 "},"Å":{"ha":306,"x_min":0,"x_max":0,"o":"m 208 1190 b 286 1113 251 1190 286 1156 b 208 1036 286 1071 251 1036 b 131 1113 166 1036 131 1071 b 208 1190 131 1156 166 1190 m 208 1050 b 272 1113 243 1050 272 1078 b 208 1176 272 1148 243 1176 b 145 1113 174 1176 145 1148 b 208 1050 145 1078 174 1050 m 292 992 l 292 71 l 280 60 l 280 981 m 181 493 b 208 468 181 493 193 485 l 208 874 l 144 462 l 181 493 m 264 515 l 208 468 b 264 303 233 440 264 388 l 264 47 l 208 0 l 208 256 b 140 440 208 381 163 425 l 81 72 l 153 132 l 153 49 l 97 1 l 97 71 l 14 0 l 14 152 l 69 198 l 69 67 l 204 927 l 125 860 l 125 944 l 181 992 l 181 921 l 264 992 "},"Ç":{"ha":194,"x_min":0,"x_max":0,"o":"m 86 957 l 69 943 l 69 89 b 86 28 69 61 76 41 m 37 -88 l 36 -73 l 76 -106 l 76 -46 l 97 -28 b 72 -7 86 -31 72 -23 b 74 3 72 -3 73 0 b 14 103 44 16 14 51 l 14 911 l 111 992 b 181 890 146 985 181 948 l 181 794 l 125 748 l 125 904 b 103 971 125 936 116 959 l 97 966 l 97 25 l 125 49 l 125 397 l 181 443 l 181 82 l 84 0 b 90 -16 81 -2 81 -14 b 132 1 100 -19 115 -13 l 132 -74 l 76 -120 "},"É":{"ha":213,"x_min":0,"x_max":0,"o":"m 30 1050 l 197 1191 l 197 1176 l 30 1036 m 104 897 l 88 883 l 88 524 l 104 538 m 104 524 l 32 464 b 88 299 57 436 88 384 l 88 61 l 104 75 m 144 94 l 32 0 l 32 252 b -51 442 32 422 -51 442 l 5 490 b 32 464 5 490 17 481 l 32 944 l 88 992 l 88 898 l 199 992 l 199 794 l 144 748 l 144 931 l 116 906 l 116 549 l 171 595 l 171 520 l 116 473 l 116 84 l 144 108 l 144 199 l 199 245 l 199 47 l 144 0 "},"Ñ":{"ha":213,"x_min":0,"x_max":0,"o":"m 88 1082 l 32 1036 l 32 1097 l 88 1144 l 88 1097 l 144 1050 l 144 1097 l 199 1144 l 199 1082 l 144 1036 m 144 929 l 116 906 l 116 71 l 104 60 l 104 897 l 88 883 l 35 838 b 88 676 59 810 88 758 l 88 47 l 32 0 l 32 628 b -51 819 32 799 -51 819 l 5 866 b 32 841 5 866 17 859 l 32 944 l 88 992 l 88 898 l 199 992 l 199 47 l 144 0 "},"Ö":{"ha":194,"x_min":0,"x_max":0,"o":"m 181 1082 l 125 1036 l 125 1145 l 181 1191 m 69 1082 l 14 1036 l 14 1145 l 69 1191 m 84 0 b 14 102 50 8 14 44 l 14 910 l 110 992 b 181 889 145 984 181 947 l 181 81 l 84 0 m 125 904 b 103 971 125 935 116 958 l 97 966 l 97 25 l 125 49 m 69 88 b 86 28 69 61 76 41 l 86 956 l 69 942 l 69 88 "},"Ü":{"ha":244,"x_min":0,"x_max":0,"o":"m 199 1082 l 144 1036 l 144 1145 l 199 1191 m 88 1082 l 32 1036 l 32 1145 l 88 1191 m 214 0 b 157 46 192 5 170 21 l 119 14 l 103 0 b 32 102 68 8 32 44 l 32 634 b -51 824 32 804 -51 824 l 5 872 b 32 846 5 872 17 863 l 32 946 l 88 992 l 88 891 l 34 845 b 88 681 58 817 88 765 l 88 88 b 104 27 88 61 95 39 l 104 981 l 116 992 l 116 25 l 153 57 b 144 102 147 69 144 84 l 144 946 l 199 992 l 199 88 b 230 14 199 49 214 22 l 214 0 "},"á":{"ha":167,"x_min":0,"x_max":0,"o":"m 153 962 l 14 845 l 14 860 l 153 977 m 82 794 b 153 692 117 787 153 750 l 153 58 l 84 0 b 14 103 50 8 14 45 l 14 469 l 97 539 l 97 606 l 84 596 b 14 698 50 603 14 640 l 14 736 l 82 794 m 69 684 b 97 611 69 647 82 622 l 97 706 b 69 778 97 743 84 769 l 69 684 m 69 89 b 97 16 69 52 82 27 l 97 525 l 69 502 l 69 89 "},"à":{"ha":167,"x_min":0,"x_max":0,"o":"m 14 976 l 153 859 l 153 845 l 14 962 m 82 794 b 153 692 117 787 153 750 l 153 58 l 84 0 b 14 103 50 8 14 45 l 14 469 l 97 539 l 97 606 l 84 596 b 14 698 50 603 14 640 l 14 736 l 82 794 m 69 684 b 97 611 69 647 82 622 l 97 706 b 69 778 97 743 84 769 l 69 684 m 69 89 b 97 16 69 52 82 27 l 97 525 l 69 502 l 69 89 "},"â":{"ha":167,"x_min":0,"x_max":0,"o":"m 14 933 l 83 992 l 153 933 l 153 919 l 83 978 l 14 919 m 82 794 b 153 692 117 787 153 750 l 153 58 l 84 0 b 14 103 50 8 14 45 l 14 469 l 97 539 l 97 606 l 84 596 b 14 698 50 603 14 640 l 14 736 l 82 794 m 69 684 b 97 611 69 647 82 622 l 97 706 b 69 778 97 743 84 769 l 69 684 m 69 89 b 97 16 69 52 82 27 l 97 525 l 69 502 l 69 89 "},"ä":{"ha":167,"x_min":0,"x_max":0,"o":"m 153 892 l 97 845 l 97 946 l 153 993 m 69 892 l 14 845 l 14 946 l 69 993 m 82 794 b 153 692 117 787 153 750 l 153 58 l 84 0 b 14 103 50 8 14 45 l 14 469 l 97 539 l 97 606 l 84 596 b 14 698 50 603 14 640 l 14 736 l 82 794 m 69 684 b 97 611 69 647 82 622 l 97 706 b 69 778 97 743 84 769 l 69 684 m 69 89 b 97 16 69 52 82 27 l 97 525 l 69 502 l 69 89 "},"ã":{"ha":194,"x_min":0,"x_max":0,"o":"m 125 839 l 69 885 l 14 838 l 14 900 l 69 947 l 69 900 l 125 853 l 125 900 l 181 947 l 181 885 l 125 838 m 96 794 b 167 692 131 787 167 750 l 167 58 l 98 0 b 28 103 64 8 28 45 l 28 469 l 111 539 l 111 606 l 98 596 b 28 698 64 603 28 640 l 28 736 l 96 794 m 83 684 b 111 611 83 647 96 622 l 111 706 b 83 778 111 743 98 769 l 83 684 m 83 89 b 111 16 83 52 96 27 l 111 525 l 83 502 l 83 89 "},"å":{"ha":167,"x_min":0,"x_max":0,"o":"m 83 986 b 153 917 122 986 153 955 b 83 847 153 877 122 847 b 14 917 45 847 14 877 b 83 986 14 955 45 986 m 83 861 b 139 917 113 861 139 885 b 83 972 139 947 113 972 b 28 917 52 972 28 947 b 83 861 28 885 52 861 m 82 794 b 153 692 117 787 153 750 l 153 58 l 84 0 b 14 103 50 8 14 45 l 14 469 l 97 539 l 97 606 l 84 596 b 14 698 50 603 14 640 l 14 736 l 82 794 m 69 684 b 97 611 69 647 82 622 l 97 706 b 69 778 97 743 84 769 l 69 684 m 69 89 b 97 16 69 52 82 27 l 97 525 l 69 502 l 69 89 "},"ç":{"ha":167,"x_min":0,"x_max":0,"o":"m 75 -122 l 75 -120 l 36 -88 l 36 -73 l 75 -106 l 76 -46 l 97 -28 b 72 -7 86 -31 72 -23 b 74 5 72 -2 73 1 b 14 103 43 16 14 51 l 14 737 l 82 795 b 153 692 117 787 153 750 l 153 596 l 97 550 l 97 707 b 69 779 97 743 84 769 l 69 89 b 97 17 69 52 82 27 l 97 199 l 153 247 l 153 59 b 84 0 153 59 84 1 b 90 -16 81 -2 81 -14 b 132 1 98 -19 115 -13 l 131 -74 l 76 -120 l 76 -122 "},"é":{"ha":167,"x_min":0,"x_max":0,"o":"m 153 962 l 14 845 l 14 860 l 153 977 m 84 1 b 14 103 51 8 14 45 l 14 736 l 69 784 l 83 794 b 153 682 117 787 153 740 l 153 435 l 69 365 l 69 89 b 97 16 69 52 82 27 l 97 197 l 153 243 l 153 59 l 84 1 m 97 706 b 69 778 97 743 86 769 l 69 378 l 97 403 l 97 706 "},"è":{"ha":167,"x_min":0,"x_max":0,"o":"m 14 976 l 153 859 l 153 845 l 14 962 m 84 1 b 14 103 51 8 14 45 l 14 736 l 69 784 l 83 794 b 153 682 117 787 153 740 l 153 435 l 69 365 l 69 89 b 97 16 69 52 82 27 l 97 197 l 153 243 l 153 59 l 84 1 m 97 706 b 69 778 97 743 86 769 l 69 378 l 97 403 l 97 706 "},"ê":{"ha":167,"x_min":0,"x_max":0,"o":"m 14 933 l 83 992 l 153 933 l 153 919 l 83 978 l 14 919 m 84 1 b 14 103 51 8 14 45 l 14 736 l 69 784 l 83 794 b 153 682 117 787 153 740 l 153 435 l 69 365 l 69 89 b 97 16 69 52 82 27 l 97 197 l 153 243 l 153 59 l 84 1 m 97 706 b 69 778 97 743 86 769 l 69 378 l 97 403 l 97 706 "},"ë":{"ha":167,"x_min":0,"x_max":0,"o":"m 153 892 l 97 845 l 97 946 l 153 993 m 69 892 l 14 845 l 14 946 l 69 993 m 84 1 b 14 103 51 8 14 45 l 14 736 l 69 784 l 83 794 b 153 682 117 787 153 740 l 153 435 l 69 365 l 69 89 b 97 16 69 52 82 27 l 97 197 l 153 243 l 153 59 l 84 1 m 97 706 b 69 778 97 743 86 769 l 69 378 l 97 403 l 97 706 "},"í":{"ha":83,"x_min":0,"x_max":0,"o":"m 111 962 l -28 845 l -28 860 l 111 977 m 69 47 l 14 0 l 14 749 l 69 795 "},"ì":{"ha":83,"x_min":0,"x_max":0,"o":"m -28 976 l 111 859 l 111 845 l -28 962 m 69 47 l 14 0 l 14 749 l 69 795 "},"î":{"ha":83,"x_min":0,"x_max":0,"o":"m -28 933 l 42 992 l 111 933 l 111 919 l 42 978 l -28 919 m 69 47 l 14 0 l 14 749 l 69 795 "},"ï":{"ha":83,"x_min":0,"x_max":0,"o":"m 111 892 l 56 845 l 56 946 l 111 993 m 28 892 l -28 845 l -28 946 l 28 993 m 69 47 l 14 0 l 14 749 l 69 795 "},"ñ":{"ha":167,"x_min":0,"x_max":0,"o":"m 56 880 l 14 845 l 14 905 l 29 918 l 97 860 l 97 895 l 153 941 l 153 892 l 97 845 m 97 735 l 69 711 l 69 47 l 14 0 l 14 749 l 69 796 l 69 726 l 153 796 l 153 47 l 97 0 "},"ó":{"ha":167,"x_min":0,"x_max":0,"o":"m 153 962 l 14 845 l 14 860 l 153 977 m 82 795 b 153 693 117 788 153 751 l 153 58 l 84 0 b 14 102 50 8 14 44 l 14 737 l 82 795 m 69 88 b 97 16 69 51 82 25 l 97 707 b 69 780 97 744 84 770 l 69 88 "},"ò":{"ha":167,"x_min":0,"x_max":0,"o":"m 14 976 l 153 859 l 153 845 l 14 962 m 82 795 b 153 693 117 788 153 751 l 153 58 l 84 0 b 14 102 50 8 14 44 l 14 737 l 82 795 m 69 88 b 97 16 69 51 82 25 l 97 707 b 69 780 97 744 84 770 l 69 88 "},"ô":{"ha":167,"x_min":0,"x_max":0,"o":"m 14 933 l 83 992 l 153 933 l 153 919 l 83 978 l 14 919 m 82 795 b 153 693 117 788 153 751 l 153 58 l 84 0 b 14 102 50 8 14 44 l 14 737 l 82 795 m 69 88 b 97 16 69 51 82 25 l 97 707 b 69 780 97 744 84 770 l 69 88 "},"ö":{"ha":167,"x_min":0,"x_max":0,"o":"m 153 892 l 97 845 l 97 946 l 153 993 m 69 892 l 14 845 l 14 946 l 69 993 m 82 795 b 153 693 117 788 153 751 l 153 58 l 84 0 b 14 102 50 8 14 44 l 14 737 l 82 795 m 69 88 b 97 16 69 51 82 25 l 97 707 b 69 780 97 744 84 770 l 69 88 "},"õ":{"ha":167,"x_min":0,"x_max":0,"o":"m 56 880 l 14 845 l 14 905 l 29 918 l 97 860 l 97 895 l 153 941 l 153 892 l 97 845 m 82 795 b 153 693 117 788 153 751 l 153 58 l 84 0 b 14 102 50 8 14 44 l 14 737 l 82 795 m 69 88 b 97 16 69 51 82 25 l 97 707 b 69 780 97 744 84 770 l 69 88 "},"ú":{"ha":167,"x_min":0,"x_max":0,"o":"m 153 962 l 14 845 l 14 860 l 153 977 m 97 71 l 14 0 l 14 749 l 69 796 l 69 59 l 97 82 l 97 749 l 153 796 l 153 47 l 97 0 "},"ù":{"ha":167,"x_min":0,"x_max":0,"o":"m 14 976 l 153 859 l 153 845 l 14 962 m 97 71 l 14 0 l 14 749 l 69 796 l 69 59 l 97 82 l 97 749 l 153 796 l 153 47 l 97 0 "},"û":{"ha":167,"x_min":0,"x_max":0,"o":"m 14 933 l 83 992 l 153 933 l 153 919 l 83 978 l 14 919 m 97 71 l 14 0 l 14 749 l 69 796 l 69 59 l 97 82 l 97 749 l 153 796 l 153 47 l 97 0 "},"ü":{"ha":167,"x_min":0,"x_max":0,"o":"m 153 892 l 97 845 l 97 946 l 153 993 m 69 892 l 14 845 l 14 946 l 69 993 m 97 71 l 14 0 l 14 749 l 69 796 l 69 59 l 97 82 l 97 749 l 153 796 l 153 47 l 97 0 "},"°":{"ha":167,"x_min":0,"x_max":0,"o":"m 86 992 b 153 877 120 984 153 935 l 153 730 l 84 672 b 14 774 50 679 14 716 l 14 931 l 69 978 l 69 760 b 97 688 69 723 82 698 l 97 891 b 69 978 97 931 86 970 l 86 992 "},"¢":{"ha":167,"x_min":0,"x_max":0,"o":"m 86 0 l 86 178 l 84 177 b 14 280 51 185 14 222 l 14 736 l 69 782 l 82 794 b 86 793 83 793 84 793 l 86 970 l 97 981 l 97 788 b 153 691 126 774 153 741 l 153 596 l 97 550 l 97 706 b 69 778 97 742 84 767 l 69 265 b 91 199 69 234 79 211 l 97 205 l 97 374 l 153 420 l 153 236 l 101 191 l 97 189 l 97 12 "},"£":{"ha":227,"x_min":0,"x_max":0,"o":"m 104 74 l 104 957 l 88 943 l 88 559 l 35 514 b 88 351 59 485 88 434 l 88 61 m 144 94 l 32 0 l 32 304 b -51 494 32 475 -51 494 l 5 542 b 32 516 5 542 17 534 l 32 911 l 128 992 b 199 890 163 985 199 948 l 199 644 l 144 597 l 144 904 b 122 972 144 936 134 959 l 116 968 l 116 495 l 227 495 l 227 485 l 116 485 l 116 84 l 144 108 l 144 271 l 199 318 l 199 46 l 144 0 "},"§":{"ha":171,"x_min":0,"x_max":0,"o":"m 86 819 b 103 813 91 818 97 816 b 71 934 86 845 75 907 l 69 933 l 69 806 l 86 819 m 69 663 l 69 444 l 97 466 l 97 686 m 84 0 b 14 102 51 8 14 44 l 14 258 l 69 306 l 69 88 b 94 20 69 54 80 31 l 97 23 l 97 311 b 78 391 97 345 90 377 l 15 339 l 14 339 l 14 628 l 97 699 l 97 720 b 76 800 97 752 89 786 l 69 794 l 69 753 l 14 707 l 14 946 l 69 993 l 69 944 l 125 992 b 181 839 125 992 144 839 l 125 793 l 124 793 b 153 705 141 772 153 740 l 153 502 l 69 432 l 69 397 l 87 411 b 153 296 120 404 153 354 l 153 58 l 84 0 "},"¶":{"ha":306,"x_min":0,"x_max":0,"o":"m 153 566 l 153 931 l 125 907 l 125 543 m 113 534 l 113 898 l 69 861 l 69 582 b 91 515 69 550 79 527 m 113 0 l 113 519 l 84 494 b 14 596 50 502 14 538 l 14 946 l 69 993 l 69 875 l 208 992 l 208 921 l 292 992 l 292 47 l 236 1 l 236 931 l 208 907 l 208 47 l 153 1 l 153 552 l 125 529 l 125 12 "},"ß":{"ha":278,"x_min":0,"x_max":0,"o":"m 181 596 b 208 571 181 596 193 588 l 208 931 l 181 907 l 181 596 m 169 586 l 169 898 l 79 822 b 153 638 100 803 153 749 l 153 573 m 181 24 l 208 47 l 208 359 b 181 497 208 425 196 468 m 264 617 l 208 571 b 264 405 233 543 264 491 l 264 80 l 169 0 l 169 515 b 153 532 163 522 157 528 l 153 58 l 84 0 b 14 103 50 8 14 45 l 14 159 l 69 205 l 69 89 b 97 16 69 52 82 27 l 97 591 b 14 781 97 762 14 781 l 264 993 "},"®":{"ha":775,"x_min":0,"x_max":0,"o":"m 484 795 b 249 560 484 666 378 560 b 14 795 119 560 14 666 b 249 1030 14 925 119 1030 b 484 795 378 1030 484 925 m 472 795 b 249 1019 472 919 372 1019 b 24 795 125 1019 24 919 b 249 572 24 672 125 572 b 472 795 372 572 472 672 m 266 692 b 252 775 266 731 262 758 l 252 604 l 245 597 l 245 787 b 231 802 241 794 236 799 l 231 626 l 197 597 l 197 942 l 206 949 l 257 993 b 300 931 278 988 300 965 l 300 847 l 270 822 b 300 721 285 804 300 772 l 300 626 l 266 597 m 252 838 b 266 826 255 837 260 832 l 266 939 b 252 980 266 958 260 973 l 252 838 m 245 833 l 245 975 l 231 963 l 231 822 "},"©":{"ha":498,"x_min":0,"x_max":0,"o":"m 484 795 b 249 560 484 666 378 560 b 14 795 119 560 14 666 b 249 1030 14 925 119 1030 b 484 795 378 1030 484 925 m 472 795 b 249 1019 472 919 372 1019 b 24 795 125 1019 24 919 b 249 572 24 672 125 572 b 472 795 372 572 472 672 m 240 597 b 197 660 219 602 197 625 l 197 942 l 257 993 b 300 929 278 988 300 965 l 300 847 l 266 818 l 266 939 b 252 980 266 958 260 972 l 252 617 l 266 628 l 266 772 l 300 802 l 300 648 m 245 611 l 245 975 l 231 962 l 231 650 b 244 610 231 631 236 617 "},"´":{"ha":194,"x_min":0,"x_max":0,"o":"m 14 852 l 181 992 l 181 978 l 14 837 "},"¨":{"ha":194,"x_min":0,"x_max":0,"o":"m 181 1082 l 125 1036 l 125 1145 l 181 1191 m 69 1082 l 14 1036 l 14 1145 l 69 1191 "},"Æ":{"ha":389,"x_min":0,"x_max":0,"o":"m 264 528 l 280 542 l 280 897 l 264 883 m 209 468 b 264 303 234 440 264 388 l 264 61 l 280 74 l 280 528 l 209 468 m 144 462 l 181 493 b 208 469 181 493 196 484 l 208 874 m 319 94 l 209 0 l 209 1 l 208 0 b 206 304 208 0 207 289 b 140 439 196 391 160 426 l 81 72 l 153 132 l 153 49 l 97 2 l 97 71 l 14 0 l 14 152 l 69 198 l 69 67 l 204 927 l 125 860 l 125 944 l 181 992 l 181 921 l 264 992 l 264 898 l 280 912 l 280 983 l 292 992 l 292 921 l 375 992 l 375 794 l 319 748 l 319 931 l 292 907 l 292 552 l 347 598 l 347 524 l 292 477 l 292 84 l 319 108 l 319 199 l 375 245 l 375 47 l 319 0 "},"Ø":{"ha":194,"x_min":0,"x_max":0,"o":"m 208 582 l 181 559 l 181 81 l 84 0 b 14 102 50 8 14 44 l 14 419 l -14 395 l -14 409 l 14 433 l 14 910 l 110 992 b 181 889 145 984 181 947 l 181 573 l 208 596 m 97 966 l 97 503 l 125 527 l 125 904 b 103 971 125 935 116 958 m 69 479 l 86 493 l 86 956 l 69 942 m 125 513 l 97 488 l 97 25 l 125 49 m 69 88 b 86 28 69 61 76 41 l 86 479 l 69 465 l 69 88 "},"±":{"ha":251,"x_min":0,"x_max":0,"o":"m 236 510 l 130 510 l 130 404 l 120 404 l 120 510 l 14 510 l 14 520 l 120 520 l 120 626 l 130 626 l 130 520 l 236 520 m 237 384 l 15 384 l 15 395 l 237 395 "},"¥":{"ha":252,"x_min":0,"x_max":0,"o":"m 100 891 l 44 845 l 44 944 l 100 992 m 103 0 b 32 102 68 8 32 44 l 32 304 b -51 495 32 475 -51 495 l 5 542 b 88 352 5 542 88 491 l 88 88 b 110 21 88 56 97 32 l 116 25 l 116 527 b 104 542 112 532 109 537 l 16 542 l 16 551 l 96 551 b 44 591 69 581 44 591 l 44 612 l 16 612 l 16 622 l 44 622 l 44 633 b -39 823 44 803 -39 823 l 16 870 b 44 845 16 870 29 862 b 100 679 68 817 100 765 l 100 639 b 116 626 100 639 106 634 l 116 981 l 127 992 l 127 615 b 155 583 135 606 146 596 l 155 944 l 211 992 l 211 622 l 238 622 l 238 612 l 204 612 l 161 576 b 176 551 167 568 171 560 l 238 551 l 238 542 l 182 542 b 211 422 198 509 211 470 l 211 91 l 155 44 l 103 0 m 155 376 b 127 506 155 432 144 475 l 127 35 l 155 59 "},"μ":{"ha":167,"x_min":0,"x_max":0,"o":"m 14 -120 l 14 748 l 69 795 l 69 59 l 97 82 l 97 748 l 153 795 l 153 47 l 97 0 l 97 71 l 69 47 l 69 -73 "},"ª":{"ha":111,"x_min":0,"x_max":0,"o":"m 54 990 b 97 928 75 985 97 963 l 97 631 l 56 596 b 14 657 35 601 14 623 l 14 795 l 64 838 l 64 877 l 56 872 b 14 933 35 876 14 898 l 14 956 l 54 990 m 47 924 b 64 881 47 902 54 887 l 64 938 b 47 980 64 959 56 975 l 47 924 m 47 648 b 64 605 47 626 54 611 l 64 829 l 47 815 l 47 648 "},"º":{"ha":111,"x_min":0,"x_max":0,"o":"m 54 990 b 97 928 75 985 97 963 l 97 631 l 56 596 b 14 657 35 601 14 623 l 14 955 l 54 990 m 47 648 b 64 605 47 626 54 611 l 64 938 b 47 980 64 959 56 975 l 47 648 "},"æ":{"ha":250,"x_min":0,"x_max":0,"o":"m 236 243 l 236 58 l 168 0 b 120 31 152 3 134 14 l 84 0 b 14 102 50 8 14 44 l 14 469 l 97 539 l 97 606 l 84 595 b 14 698 50 603 14 640 l 14 736 l 82 794 b 130 763 98 789 116 779 l 166 794 b 236 682 200 786 236 740 l 236 435 l 153 365 l 153 88 b 181 16 153 51 166 27 l 181 196 m 69 683 b 97 611 69 646 82 622 l 97 706 b 69 778 97 742 84 767 l 69 683 m 181 402 l 181 706 b 153 778 181 742 168 767 l 153 378 m 97 524 l 69 501 l 69 88 b 97 16 69 51 82 25 "},"ø":{"ha":167,"x_min":0,"x_max":0,"o":"m 181 472 l 153 449 l 153 58 l 84 0 b 14 102 50 8 14 44 l 14 332 l -14 308 l -14 323 l 14 346 l 14 737 l 82 795 b 153 693 117 788 153 751 l 153 463 l 181 486 m 69 394 l 97 417 l 97 707 b 69 780 97 744 84 770 m 97 403 l 69 378 l 69 88 b 97 16 69 51 82 25 "},"¿":{"ha":250,"x_min":0,"x_max":0,"o":"m 97 852 l 97 946 l 153 992 l 153 899 m 125 46 l 125 497 b 108 543 118 509 112 525 l 69 512 l 69 88 b 93 20 69 54 80 31 m 153 0 l 153 58 l 84 0 b 14 102 50 8 14 44 l 14 479 l 104 554 b 97 620 100 574 97 596 l 97 747 l 153 793 l 153 668 b 236 477 153 498 236 477 l 181 431 b 137 477 181 431 159 444 l 137 57 l 153 69 l 153 289 l 208 336 l 208 47 "},"¡":{"ha":83,"x_min":0,"x_max":0,"o":"m 14 946 l 69 992 l 69 899 l 14 852 m 14 747 l 69 793 l 69 47 l 14 0 "},"¬":{"ha":250,"x_min":0,"x_max":0,"o":"m 236 471 l 226 471 l 226 510 l 14 510 l 14 521 l 236 521 "},"«":{"ha":156,"x_min":0,"x_max":0,"o":"m 73 446 l 14 515 l 73 584 l 87 584 l 28 515 l 87 446 m 128 446 l 69 515 l 128 584 l 142 584 l 83 515 l 142 446 "},"»":{"ha":156,"x_min":0,"x_max":0,"o":"m 83 584 l 142 515 l 83 446 l 69 446 l 128 515 l 69 584 m 28 584 l 87 515 l 28 446 l 14 446 l 73 515 l 14 584 "},"À":{"ha":306,"x_min":0,"x_max":0,"o":"m 288 1036 l 122 1176 l 122 1191 l 288 1050 m 292 992 l 292 71 l 280 60 l 280 981 m 181 493 b 208 468 181 493 193 485 l 208 874 l 144 462 l 181 493 m 264 515 l 208 468 b 264 303 233 440 264 388 l 264 47 l 208 0 l 208 256 b 140 440 208 381 163 425 l 81 72 l 153 132 l 153 49 l 97 1 l 97 71 l 14 0 l 14 152 l 69 198 l 69 67 l 204 927 l 125 860 l 125 944 l 181 992 l 181 921 l 264 992 "},"Ã":{"ha":306,"x_min":0,"x_max":0,"o":"m 181 1082 l 125 1036 l 125 1097 l 181 1144 l 181 1097 l 236 1050 l 236 1097 l 292 1144 l 292 1082 l 236 1036 m 292 992 l 292 71 l 280 60 l 280 981 m 181 493 b 208 468 181 493 193 485 l 208 874 l 144 462 l 181 493 m 264 515 l 208 468 b 264 303 233 440 264 388 l 264 47 l 208 0 l 208 256 b 140 440 208 381 163 425 l 81 72 l 153 132 l 153 49 l 97 1 l 97 71 l 14 0 l 14 152 l 69 198 l 69 67 l 204 927 l 125 860 l 125 944 l 181 992 l 181 921 l 264 992 "},"Õ":{"ha":194,"x_min":0,"x_max":0,"o":"m 69 1082 l 14 1036 l 14 1097 l 69 1144 l 69 1097 l 125 1050 l 125 1097 l 181 1144 l 181 1082 l 125 1036 m 84 0 b 14 102 50 8 14 44 l 14 910 l 110 992 b 181 889 145 984 181 947 l 181 81 l 84 0 m 125 904 b 103 971 125 935 116 958 l 97 966 l 97 25 l 125 49 m 69 88 b 86 28 69 61 76 41 l 86 956 l 69 942 l 69 88 "},"Œ":{"ha":306,"x_min":0,"x_max":0,"o":"m 125 904 b 103 971 125 935 116 958 l 97 966 l 97 25 l 125 49 m 86 956 l 69 942 l 69 88 b 86 28 69 61 76 41 m 236 0 l 236 94 l 125 0 l 125 35 l 84 0 b 14 102 50 8 14 44 l 14 910 l 110 992 b 181 898 142 984 177 950 l 292 992 l 292 794 l 236 748 l 236 931 l 208 906 l 208 549 l 264 595 l 264 520 l 208 473 l 208 84 l 236 108 l 236 199 l 292 245 l 292 47 m 197 897 l 181 883 l 181 524 l 197 538 m 197 524 l 181 510 l 181 61 l 197 75 "},"œ":{"ha":250,"x_min":0,"x_max":0,"o":"m 97 706 b 69 778 97 742 84 767 l 69 88 b 97 16 69 51 82 25 m 153 378 l 181 403 l 181 706 b 153 778 181 743 168 769 m 84 0 b 14 102 50 8 14 44 l 14 736 l 82 794 b 128 763 98 789 116 779 l 153 784 l 166 794 b 236 682 200 787 236 740 l 236 435 l 153 365 l 153 89 b 181 16 153 52 166 27 l 181 197 l 236 243 l 236 59 l 168 1 b 122 31 152 5 134 15 "},"‘":{"ha":83,"x_min":0,"x_max":0,"o":"m 69 870 l 14 950 l 14 992 l 69 946 "},"’":{"ha":83,"x_min":0,"x_max":0,"o":"m 14 946 l 69 992 l 69 950 l 14 870 "},"÷":{"ha":250,"x_min":0,"x_max":0,"o":"m 153 589 l 97 542 l 97 617 l 153 663 m 236 510 l 14 510 l 14 520 l 236 520 m 153 406 l 97 359 l 97 434 l 153 480 "},"ÿ":{"ha":167,"x_min":0,"x_max":0,"o":"m 153 892 l 97 845 l 97 946 l 153 993 m 69 892 l 14 845 l 14 946 l 69 993 m 98 -197 b 15 1 98 -27 15 1 l 31 15 l 97 71 l 97 97 b 14 201 60 97 14 137 l 14 748 l 69 795 l 69 188 b 97 115 69 150 82 125 l 97 748 l 153 795 l 153 69 l 101 24 b 153 -152 125 0 153 -52 l 98 -197 m 81 42 b 97 28 86 39 91 35 l 97 57 "},"Ÿ":{"ha":225,"x_min":0,"x_max":0,"o":"m 211 1082 l 155 1036 l 155 1145 l 211 1191 m 100 1082 l 44 1036 l 44 1145 l 100 1191 m 103 0 b 32 102 68 8 32 44 l 32 304 b -51 495 32 475 -51 495 l 5 542 b 88 352 5 542 88 491 l 88 88 b 110 21 88 56 97 32 l 116 25 l 116 527 b 44 591 83 575 44 591 l 44 633 b -39 823 44 803 -39 823 l 16 870 b 44 845 16 870 29 862 l 44 944 l 100 992 l 100 891 l 44 845 b 100 679 68 817 100 765 l 100 639 b 116 626 100 639 105 634 l 116 981 l 127 992 l 127 615 b 155 583 135 606 146 596 l 155 944 l 211 992 l 211 618 l 160 576 b 211 422 186 539 211 488 l 211 91 l 155 44 l 103 0 m 155 376 b 127 506 155 432 144 475 l 127 35 l 155 59 "},"¤":{"ha":192,"x_min":0,"x_max":0,"o":"m 174 515 b 154 463 174 495 166 477 l 178 440 l 171 433 l 147 457 b 96 438 133 444 116 438 b 44 457 76 438 58 444 l 21 433 l 14 440 l 38 463 b 19 515 25 477 19 495 b 38 566 19 535 25 552 l 14 590 l 21 597 l 45 573 b 96 593 58 584 76 593 b 147 573 116 593 133 584 l 171 597 l 178 590 l 154 566 b 174 515 166 552 174 535 m 139 464 b 146 471 142 466 144 469 b 162 515 156 483 162 498 b 146 558 162 531 156 546 b 139 565 144 560 141 563 b 96 581 127 575 112 581 b 52 565 80 581 64 575 b 46 558 50 563 47 560 b 29 515 36 546 29 531 b 45 471 29 498 36 483 b 52 464 47 469 50 466 b 96 448 64 455 79 448 b 139 464 112 448 127 455 "},"·":{"ha":83,"x_min":0,"x_max":0,"o":"m 69 473 l 14 427 l 14 520 l 69 567 "},"Â":{"ha":306,"x_min":0,"x_max":0,"o":"m 289 1120 l 289 1105 l 206 1176 l 123 1105 l 123 1120 l 206 1190 m 292 992 l 292 71 l 280 60 l 280 981 m 181 493 b 208 468 181 493 193 485 l 208 874 l 144 462 l 181 493 m 264 515 l 208 468 b 264 303 233 440 264 388 l 264 47 l 208 0 l 208 256 b 140 440 208 381 163 425 l 81 72 l 153 132 l 153 49 l 97 1 l 97 71 l 14 0 l 14 152 l 69 198 l 69 67 l 204 927 l 125 860 l 125 944 l 181 992 l 181 921 l 264 992 "},"Ê":{"ha":213,"x_min":0,"x_max":0,"o":"m 199 1120 l 199 1105 l 116 1176 l 32 1105 l 32 1120 l 116 1190 m 104 897 l 88 883 l 88 524 l 104 538 m 104 524 l 32 464 b 88 299 57 436 88 384 l 88 61 l 104 75 m 144 94 l 32 0 l 32 252 b -51 442 32 422 -51 442 l 5 490 b 32 464 5 490 17 481 l 32 944 l 88 992 l 88 898 l 199 992 l 199 794 l 144 748 l 144 931 l 116 906 l 116 549 l 171 595 l 171 520 l 116 473 l 116 84 l 144 108 l 144 199 l 199 245 l 199 47 l 144 0 "},"Á":{"ha":306,"x_min":0,"x_max":0,"o":"m 125 1050 l 292 1191 l 292 1176 l 125 1036 m 292 992 l 292 71 l 280 60 l 280 981 m 181 493 b 208 468 181 493 193 485 l 208 874 l 144 462 l 181 493 m 264 515 l 208 468 b 264 303 233 440 264 388 l 264 47 l 208 0 l 208 256 b 140 440 208 381 163 425 l 81 72 l 153 132 l 153 49 l 97 1 l 97 71 l 14 0 l 14 152 l 69 198 l 69 67 l 204 927 l 125 860 l 125 944 l 181 992 l 181 921 l 264 992 "},"Ë":{"ha":213,"x_min":0,"x_max":0,"o":"m 199 1082 l 144 1036 l 144 1145 l 199 1191 m 88 1082 l 32 1036 l 32 1145 l 88 1191 m 104 897 l 88 883 l 88 524 l 104 538 m 104 524 l 32 464 b 88 299 57 436 88 384 l 88 61 l 104 75 m 144 94 l 32 0 l 32 252 b -51 442 32 422 -51 442 l 5 490 b 32 464 5 490 17 481 l 32 944 l 88 992 l 88 898 l 199 992 l 199 794 l 144 748 l 144 931 l 116 906 l 116 549 l 171 595 l 171 520 l 116 473 l 116 84 l 144 108 l 144 199 l 199 245 l 199 47 l 144 0 "},"È":{"ha":215,"x_min":0,"x_max":0,"o":"m 201 1036 l 35 1176 l 35 1191 l 201 1050 m 104 897 l 88 883 l 88 524 l 104 538 m 104 524 l 32 464 b 88 299 57 436 88 384 l 88 61 l 104 75 m 144 94 l 32 0 l 32 252 b -51 442 32 422 -51 442 l 5 490 b 32 464 5 490 17 481 l 32 944 l 88 992 l 88 898 l 199 992 l 199 794 l 144 748 l 144 931 l 116 906 l 116 549 l 171 595 l 171 520 l 116 473 l 116 84 l 144 108 l 144 199 l 199 245 l 199 47 l 144 0 "},"Í":{"ha":130,"x_min":0,"x_max":0,"o":"m -51 1050 l 116 1191 l 116 1176 l -51 1036 m 116 920 l 116 10 l 103 0 b 32 102 68 8 32 44 l 32 654 b -51 844 32 824 -51 844 l 5 891 b 32 866 5 891 17 883 l 32 944 l 88 992 l 88 912 l 32 865 b 88 700 57 837 88 785 l 88 88 b 104 28 88 61 95 41 l 104 911 "},"Î":{"ha":130,"x_min":0,"x_max":0,"o":"m 116 1120 l 116 1105 l 32 1176 l -51 1105 l -51 1120 l 32 1190 m 116 920 l 116 10 l 103 0 b 32 102 68 8 32 44 l 32 654 b -51 844 32 824 -51 844 l 5 891 b 32 866 5 891 17 883 l 32 944 l 88 992 l 88 912 l 32 865 b 88 700 57 837 88 785 l 88 88 b 104 28 88 61 95 41 l 104 911 "},"Ï":{"ha":130,"x_min":0,"x_max":0,"o":"m 116 1082 l 60 1036 l 60 1145 l 116 1191 m 5 1082 l -51 1036 l -51 1145 l 5 1191 m 116 920 l 116 10 l 103 0 b 32 102 68 8 32 44 l 32 654 b -51 844 32 824 -51 844 l 5 891 b 32 866 5 891 17 883 l 32 944 l 88 992 l 88 912 l 32 865 b 88 700 57 837 88 785 l 88 88 b 104 28 88 61 95 41 l 104 911 "},"Ì":{"ha":130,"x_min":0,"x_max":0,"o":"m 116 1036 l -51 1176 l -51 1191 l 116 1050 m 116 920 l 116 10 l 103 0 b 32 102 68 8 32 44 l 32 654 b -51 844 32 824 -51 844 l 5 891 b 32 866 5 891 17 883 l 32 944 l 88 992 l 88 912 l 32 865 b 88 700 57 837 88 785 l 88 88 b 104 28 88 61 95 41 l 104 911 "},"Ó":{"ha":194,"x_min":0,"x_max":0,"o":"m 14 1050 l 181 1191 l 181 1176 l 14 1036 m 84 0 b 14 102 50 8 14 44 l 14 910 l 110 992 b 181 889 145 984 181 947 l 181 81 l 84 0 m 125 904 b 103 971 125 935 116 958 l 97 966 l 97 25 l 125 49 m 69 88 b 86 28 69 61 76 41 l 86 956 l 69 942 l 69 88 "},"Ô":{"ha":194,"x_min":0,"x_max":0,"o":"m 181 1120 l 181 1105 l 97 1176 l 14 1105 l 14 1120 l 97 1190 m 84 0 b 14 102 50 8 14 44 l 14 910 l 110 992 b 181 889 145 984 181 947 l 181 81 l 84 0 m 125 904 b 103 971 125 935 116 958 l 97 966 l 97 25 l 125 49 m 69 88 b 86 28 69 61 76 41 l 86 956 l 69 942 l 69 88 "},"Ò":{"ha":194,"x_min":0,"x_max":0,"o":"m 181 1036 l 14 1176 l 14 1191 l 181 1050 m 84 0 b 14 102 50 8 14 44 l 14 910 l 110 992 b 181 889 145 984 181 947 l 181 81 l 84 0 m 125 904 b 103 971 125 935 116 958 l 97 966 l 97 25 l 125 49 m 69 88 b 86 28 69 61 76 41 l 86 956 l 69 942 l 69 88 "},"Ú":{"ha":244,"x_min":0,"x_max":0,"o":"m 32 1050 l 199 1191 l 199 1176 l 32 1036 m 214 0 b 157 46 192 5 170 21 l 119 14 l 103 0 b 32 102 68 8 32 44 l 32 634 b -51 824 32 804 -51 824 l 5 872 b 32 846 5 872 17 863 l 32 946 l 88 992 l 88 891 l 34 845 b 88 681 58 817 88 765 l 88 88 b 104 27 88 61 95 39 l 104 981 l 116 992 l 116 25 l 153 57 b 144 102 147 69 144 84 l 144 946 l 199 992 l 199 88 b 230 14 199 49 214 22 l 214 0 "},"Û":{"ha":244,"x_min":0,"x_max":0,"o":"m 199 1120 l 199 1105 l 116 1176 l 32 1105 l 32 1120 l 116 1190 m 214 0 b 157 46 192 5 170 21 l 119 14 l 103 0 b 32 102 68 8 32 44 l 32 634 b -51 824 32 804 -51 824 l 5 872 b 32 846 5 872 17 863 l 32 946 l 88 992 l 88 891 l 34 845 b 88 681 58 817 88 765 l 88 88 b 104 27 88 61 95 39 l 104 981 l 116 992 l 116 25 l 153 57 b 144 102 147 69 144 84 l 144 946 l 199 992 l 199 88 b 230 14 199 49 214 22 l 214 0 "},"Ù":{"ha":244,"x_min":0,"x_max":0,"o":"m 199 1036 l 32 1176 l 32 1191 l 199 1050 m 214 0 b 157 46 192 5 170 21 l 119 14 l 103 0 b 32 102 68 8 32 44 l 32 634 b -51 824 32 804 -51 824 l 5 872 b 32 846 5 872 17 863 l 32 946 l 88 992 l 88 891 l 34 845 b 88 681 58 817 88 765 l 88 88 b 104 27 88 61 95 39 l 104 981 l 116 992 l 116 25 l 153 57 b 144 102 147 69 144 84 l 144 946 l 199 992 l 199 88 b 230 14 199 49 214 22 l 214 0 "},"ı":{"ha":83,"x_min":0,"x_max":0,"o":"m 69 47 l 14 0 l 14 749 l 69 795 "},"ˆ":{"ha":194,"x_min":0,"x_max":0,"o":"m 181 1120 l 181 1105 l 97 1176 l 14 1105 l 14 1120 l 97 1190 "},"˜":{"ha":194,"x_min":0,"x_max":0,"o":"m 69 1082 l 14 1036 l 14 1097 l 69 1144 l 69 1097 l 125 1050 l 125 1097 l 181 1144 l 181 1082 l 125 1036 "},"¯":{"ha":194,"x_min":0,"x_max":0,"o":"m 181 1036 l 14 1036 l 14 1045 l 181 1045 "},"˘":{"ha":182,"x_min":0,"x_max":0,"o":"m 90 1113 b 14 1190 49 1113 14 1148 l 28 1190 b 90 1127 28 1155 56 1127 b 154 1190 126 1127 154 1155 l 168 1190 b 90 1113 168 1148 133 1113 "},"˙":{"ha":83,"x_min":0,"x_max":0,"o":"m 69 1082 l 14 1036 l 14 1145 l 69 1191 "},"˚":{"ha":183,"x_min":0,"x_max":0,"o":"m 91 1190 b 169 1113 134 1190 169 1156 b 91 1036 169 1071 134 1036 b 14 1113 49 1036 14 1071 b 91 1190 14 1156 49 1190 m 91 1050 b 155 1113 126 1050 155 1078 b 91 1176 155 1148 126 1176 b 28 1113 57 1176 28 1148 b 91 1050 28 1078 57 1050 "},"¸":{"ha":123,"x_min":0,"x_max":0,"o":"m 53 -122 l 53 -120 l 14 -88 l 14 -73 l 53 -106 l 53 -46 l 75 -28 b 50 -7 64 -31 50 -23 b 52 5 50 -2 51 1 l 63 0 b 68 -16 59 -2 59 -14 b 109 1 76 -19 93 -13 l 109 -74 l 54 -120 l 54 -122 "},"˝":{"ha":194,"x_min":0,"x_max":0,"o":"m 149 1056 l 125 1036 l 125 1145 l 181 1191 m 38 1056 l 14 1036 l 14 1145 l 69 1191 "},"˛":{"ha":87,"x_min":0,"x_max":0,"o":"m 17 -122 l 17 -54 b 16 5 14 -37 12 -22 l 27 0 b 34 -56 27 0 19 -37 b 73 -74 51 -76 73 -74 "},"ˇ":{"ha":194,"x_min":0,"x_max":0,"o":"m 14 1176 l 14 1190 l 97 1120 l 181 1190 l 181 1176 l 97 1105 "},"Ā":{"ha":307,"x_min":0,"x_max":0,"o":"m 292 1172 l 125 1172 l 125 1182 l 292 1182 m 293 992 l 292 71 l 280 60 l 280 981 m 181 493 b 208 468 181 493 193 485 l 208 874 l 144 462 l 181 493 m 264 515 l 208 468 b 264 303 233 440 264 388 l 264 47 l 208 0 l 208 256 b 140 440 208 381 164 425 l 82 72 l 153 132 l 153 49 l 97 1 l 97 71 l 14 0 l 14 152 l 69 198 l 69 67 l 205 927 l 126 860 l 125 944 l 181 992 l 182 921 l 265 992 "},"Ă":{"ha":307,"x_min":0,"x_max":0,"o":"m 208 1113 b 132 1190 166 1113 132 1148 l 146 1190 b 208 1127 146 1155 174 1127 b 272 1190 244 1127 272 1155 l 286 1190 b 208 1113 286 1148 251 1113 m 293 992 l 292 71 l 280 60 l 280 981 m 181 493 b 208 468 181 493 193 485 l 208 874 l 144 462 l 181 493 m 264 515 l 208 468 b 264 303 233 440 264 388 l 264 47 l 208 0 l 208 256 b 140 440 208 381 164 425 l 82 72 l 153 132 l 153 49 l 97 1 l 97 71 l 14 0 l 14 152 l 69 198 l 69 67 l 205 927 l 126 860 l 125 944 l 181 992 l 182 921 l 265 992 "},"Ą":{"ha":279,"x_min":0,"x_max":0,"o":"m 208 874 l 144 462 l 181 493 b 208 468 181 493 193 485 m 264 515 l 208 468 b 264 303 233 440 264 388 l 264 47 l 208 0 b 216 -56 208 -3 201 -38 b 256 -74 234 -76 256 -74 l 200 -122 l 200 -54 b 198 0 197 -38 194 -23 b 208 21 201 9 205 15 l 208 256 b 140 440 208 381 164 425 l 82 72 l 153 132 l 153 49 l 97 1 l 97 71 l 14 0 l 14 152 l 69 198 l 69 67 l 205 927 l 126 860 l 125 944 l 181 992 l 182 921 l 265 992 "},"Ć":{"ha":194,"x_min":0,"x_max":0,"o":"m 14 1050 l 181 1191 l 181 1176 l 14 1036 m 125 747 l 125 904 b 103 971 125 936 116 959 l 97 966 l 97 25 l 125 49 l 125 396 l 181 443 l 181 81 l 84 0 b 14 102 50 8 14 44 l 14 910 l 111 992 b 181 890 145 984 181 948 l 181 794 m 86 956 l 69 943 l 69 88 b 86 28 69 61 76 41 "},"Ĉ":{"ha":194,"x_min":0,"x_max":0,"o":"m 181 1120 l 181 1105 l 97 1176 l 14 1105 l 14 1120 l 97 1190 m 125 747 l 125 904 b 103 971 125 936 116 959 l 97 966 l 97 25 l 125 49 l 125 396 l 181 443 l 181 81 l 84 0 b 14 102 50 8 14 44 l 14 910 l 111 992 b 181 890 145 984 181 948 l 181 794 m 86 956 l 69 943 l 69 88 b 86 28 69 61 76 41 "},"Ċ":{"ha":194,"x_min":0,"x_max":0,"o":"m 125 1072 l 69 1025 l 69 1134 l 125 1182 m 125 747 l 125 904 b 103 971 125 936 116 959 l 97 966 l 97 25 l 125 49 l 125 396 l 181 443 l 181 81 l 84 0 b 14 102 50 8 14 44 l 14 910 l 111 992 b 181 890 145 984 181 948 l 181 794 m 86 956 l 69 943 l 69 88 b 86 28 69 61 76 41 "},"Č":{"ha":194,"x_min":0,"x_max":0,"o":"m 14 1176 l 14 1190 l 97 1120 l 181 1190 l 181 1176 l 97 1105 m 125 747 l 125 904 b 103 971 125 936 116 959 l 97 966 l 97 25 l 125 49 l 125 396 l 181 443 l 181 81 l 84 0 b 14 102 50 8 14 44 l 14 910 l 111 992 b 181 890 145 984 181 948 l 181 794 m 86 956 l 69 943 l 69 88 b 86 28 69 61 76 41 "},"Ď":{"ha":213,"x_min":0,"x_max":0,"o":"m 32 1176 l 32 1190 l 116 1120 l 199 1190 l 199 1176 l 116 1105 m 144 755 b 116 892 144 821 131 863 l 116 25 l 144 49 l 144 755 m 103 0 b 32 102 68 8 32 44 l 32 558 b -51 747 32 728 -51 747 l 5 793 b 88 604 5 793 88 743 l 88 88 b 104 28 88 61 95 41 l 104 911 b 88 928 98 918 93 924 l 88 816 l 32 770 l 32 882 l 88 928 b 60 944 73 942 60 944 l 116 992 b 199 802 116 992 199 941 l 199 81 l 103 0 "},"Ē":{"ha":213,"x_min":0,"x_max":0,"o":"m 199 1172 l 32 1172 l 32 1182 l 199 1182 m 104 897 l 88 883 l 88 524 l 104 538 m 104 524 l 32 464 b 88 299 57 436 88 384 l 88 61 l 104 75 m 144 94 l 32 0 l 32 252 b -51 442 32 422 -51 442 l 5 490 b 32 464 5 490 17 481 l 32 944 l 88 992 l 88 898 l 199 992 l 199 794 l 144 748 l 144 931 l 116 906 l 116 549 l 171 595 l 171 520 l 116 473 l 116 84 l 144 108 l 144 199 l 199 245 l 199 47 l 144 0 "},"Ĕ":{"ha":213,"x_min":0,"x_max":0,"o":"m 116 1113 b 38 1190 73 1113 38 1148 l 52 1190 b 116 1127 52 1155 81 1127 b 179 1190 150 1127 179 1155 l 193 1190 b 116 1113 193 1148 159 1113 m 104 897 l 88 883 l 88 524 l 104 538 m 104 524 l 32 464 b 88 299 57 436 88 384 l 88 61 l 104 75 m 144 94 l 32 0 l 32 252 b -51 442 32 422 -51 442 l 5 490 b 32 464 5 490 17 481 l 32 944 l 88 992 l 88 898 l 199 992 l 199 794 l 144 748 l 144 931 l 116 906 l 116 549 l 171 595 l 171 520 l 116 473 l 116 84 l 144 108 l 144 199 l 199 245 l 199 47 l 144 0 "},"Ė":{"ha":213,"x_min":0,"x_max":0,"o":"m 144 1072 l 88 1025 l 88 1134 l 144 1182 m 104 897 l 88 883 l 88 524 l 104 538 m 104 524 l 32 464 b 88 299 57 436 88 384 l 88 61 l 104 75 m 144 94 l 32 0 l 32 252 b -51 442 32 422 -51 442 l 5 490 b 32 464 5 490 17 481 l 32 944 l 88 992 l 88 898 l 199 992 l 199 794 l 144 748 l 144 931 l 116 906 l 116 549 l 171 595 l 171 520 l 116 473 l 116 84 l 144 108 l 144 199 l 199 245 l 199 47 l 144 0 "},"Ę":{"ha":213,"x_min":0,"x_max":0,"o":"m 104 897 l 88 883 l 88 524 l 104 538 m 104 524 l 32 464 b 88 299 57 436 88 384 l 88 61 l 104 75 m 144 94 l 32 0 l 32 252 b -51 442 32 422 -51 442 l 5 490 b 32 464 5 490 17 481 l 32 944 l 88 992 l 88 898 l 199 992 l 199 794 l 144 748 l 144 931 l 116 906 l 116 549 l 171 595 l 171 520 l 116 473 l 116 84 l 144 108 l 144 199 l 199 245 l 199 47 l 144 0 m 96 -122 l 96 -54 b 95 5 93 -37 90 -22 l 104 0 b 112 -56 104 0 96 -37 b 152 -74 130 -76 152 -74 "},"Ě":{"ha":213,"x_min":0,"x_max":0,"o":"m 32 1176 l 32 1190 l 116 1120 l 199 1190 l 199 1176 l 116 1105 m 104 897 l 88 883 l 88 524 l 104 538 m 104 524 l 32 464 b 88 299 57 436 88 384 l 88 61 l 104 75 m 144 94 l 32 0 l 32 252 b -51 442 32 422 -51 442 l 5 490 b 32 464 5 490 17 481 l 32 944 l 88 992 l 88 898 l 199 992 l 199 794 l 144 748 l 144 931 l 116 906 l 116 549 l 171 595 l 171 520 l 116 473 l 116 84 l 144 108 l 144 199 l 199 245 l 199 47 l 144 0 "},"Ĝ":{"ha":194,"x_min":0,"x_max":0,"o":"m 181 1120 l 181 1105 l 97 1176 l 14 1105 l 14 1120 l 97 1190 m 125 0 l 125 35 l 84 0 b 14 102 50 8 14 44 l 14 911 l 110 992 b 181 890 145 984 181 948 l 181 795 l 125 749 l 125 904 b 103 971 125 936 116 959 l 97 966 l 97 524 l 181 595 l 181 47 m 69 943 l 69 88 b 86 28 69 61 76 41 l 86 957 m 125 49 l 125 534 l 97 510 l 97 24 l 98 25 "},"Ğ":{"ha":194,"x_min":0,"x_max":0,"o":"m 97 1113 b 20 1190 54 1113 20 1148 l 34 1190 b 97 1127 34 1155 63 1127 b 161 1190 132 1127 161 1155 l 175 1190 b 97 1113 175 1148 140 1113 m 125 0 l 125 35 l 84 0 b 14 102 50 8 14 44 l 14 911 l 110 992 b 181 890 145 984 181 948 l 181 795 l 125 749 l 125 904 b 103 971 125 936 116 959 l 97 966 l 97 524 l 181 595 l 181 47 m 69 943 l 69 88 b 86 28 69 61 76 41 l 86 957 m 125 49 l 125 534 l 97 510 l 97 24 l 98 25 "},"Ġ":{"ha":194,"x_min":0,"x_max":0,"o":"m 125 1072 l 69 1025 l 69 1134 l 125 1182 m 125 0 l 125 35 l 84 0 b 14 102 50 8 14 44 l 14 911 l 110 992 b 181 890 145 984 181 948 l 181 795 l 125 749 l 125 904 b 103 971 125 936 116 959 l 97 966 l 97 524 l 181 595 l 181 47 m 69 943 l 69 88 b 86 28 69 61 76 41 l 86 957 m 125 49 l 125 534 l 97 510 l 97 24 l 98 25 "},"Ģ":{"ha":194,"x_min":0,"x_max":0,"o":"m 86 957 l 69 943 l 69 88 b 86 28 69 61 76 41 m 97 510 l 97 24 l 98 25 l 125 49 l 125 534 m 37 -88 l 37 -73 l 76 -106 l 76 -46 l 98 -28 b 72 -7 86 -31 72 -23 b 74 3 72 -3 73 0 b 14 102 43 15 14 50 l 14 911 l 110 992 b 181 890 145 984 181 948 l 181 795 l 125 749 l 125 904 b 103 971 125 936 116 959 l 97 966 l 97 524 l 181 595 l 181 47 l 125 0 l 125 35 l 84 0 b 90 -16 81 -3 81 -14 b 132 1 100 -19 115 -13 l 132 -74 l 76 -120 "},"Ĥ":{"ha":194,"x_min":0,"x_max":0,"o":"m 181 1120 l 181 1105 l 97 1176 l 14 1105 l 14 1120 l 97 1190 m 181 992 l 181 47 l 125 0 l 125 582 l 97 582 l 97 71 l 86 60 l 86 582 l 69 582 l 69 47 l 14 0 l 14 944 l 69 992 l 69 594 l 86 594 l 86 912 l 97 921 l 97 594 l 125 594 l 125 944 "},"Ĩ":{"ha":134,"x_min":0,"x_max":0,"o":"m 32 1082 l -23 1036 l -23 1097 l 32 1144 l 32 1097 l 88 1050 l 88 1097 l 144 1144 l 144 1082 l 88 1036 m 116 920 l 116 10 l 103 0 b 32 102 68 8 32 44 l 32 654 b -51 844 32 824 -51 844 l 5 891 b 32 866 5 891 17 883 l 32 944 l 88 992 l 88 912 l 32 865 b 88 700 57 837 88 785 l 88 88 b 104 28 88 61 95 41 l 104 911 "},"Ī":{"ha":134,"x_min":0,"x_max":0,"o":"m 144 1172 l -23 1172 l -23 1182 l 144 1182 m 116 920 l 116 10 l 103 0 b 32 102 68 8 32 44 l 32 654 b -51 844 32 824 -51 844 l 5 891 b 32 866 5 891 17 883 l 32 944 l 88 992 l 88 912 l 32 865 b 88 700 57 837 88 785 l 88 88 b 104 28 88 61 95 41 l 104 911 "},"Ĭ":{"ha":128,"x_min":0,"x_max":0,"o":"m 60 1113 b -17 1190 17 1113 -17 1148 l -3 1190 b 60 1127 -3 1155 25 1127 b 124 1190 95 1127 124 1155 l 138 1190 b 60 1113 138 1148 103 1113 m 116 920 l 116 10 l 103 0 b 32 102 68 8 32 44 l 32 654 b -51 844 32 824 -51 844 l 5 891 b 32 866 5 891 17 883 l 32 944 l 88 992 l 88 912 l 32 865 b 88 700 57 837 88 785 l 88 88 b 104 28 88 61 95 41 l 104 911 "},"Į":{"ha":141,"x_min":0,"x_max":0,"o":"m 95 -122 l 95 -54 b 93 3 91 -37 88 -22 b 32 102 63 15 32 50 l 32 654 b -51 844 32 824 -51 844 l 5 891 b 32 866 5 891 17 883 l 32 944 l 88 992 l 88 912 l 32 865 b 88 700 57 837 88 785 l 88 88 b 104 28 88 61 95 41 l 104 911 l 116 920 l 116 10 l 103 0 b 110 -56 102 -5 96 -38 b 150 -74 127 -76 150 -74 "},"İ":{"ha":130,"x_min":0,"x_max":0,"o":"m 88 1072 l 32 1025 l 32 1134 l 88 1182 m 116 920 l 116 10 l 103 0 b 32 102 68 8 32 44 l 32 654 b -51 844 32 824 -51 844 l 5 891 b 32 866 5 891 17 883 l 32 944 l 88 992 l 88 912 l 32 865 b 88 700 57 837 88 785 l 88 88 b 104 28 88 61 95 41 l 104 911 "},"Ĵ":{"ha":213,"x_min":0,"x_max":0,"o":"m 199 1120 l 199 1105 l 116 1176 l 32 1105 l 32 1120 l 116 1190 m 199 920 l 199 141 l 188 131 l 188 910 m 32 292 b -51 483 32 462 -51 483 l 5 529 b 32 503 5 529 17 521 l 32 549 l 88 595 l 88 515 l 49 483 b 88 339 69 451 88 405 l 88 61 l 117 86 b 116 102 116 90 116 96 l 116 653 b 32 843 116 823 32 843 l 88 890 b 116 865 88 890 101 882 l 116 943 l 171 991 l 171 911 l 116 865 b 171 699 140 837 171 785 l 171 117 l 32 0 "},"Ķ":{"ha":212,"x_min":0,"x_max":0,"o":"m 57 -88 l 56 -73 l 96 -106 l 96 -46 l 117 -28 b 91 -7 105 -31 91 -23 b 95 5 91 -2 93 1 b 104 14 96 8 101 12 l 104 512 b 88 530 98 520 93 525 l 88 47 l 32 0 l 32 634 b -51 824 32 804 -51 824 l 5 872 b 32 846 5 872 17 863 l 32 946 l 88 992 l 88 885 l 36 841 b 88 682 60 813 88 762 l 88 569 l 104 583 l 104 965 l 116 975 l 116 594 l 201 666 b 144 764 171 678 144 713 l 144 946 l 199 992 l 199 750 b 230 676 199 711 214 684 l 214 662 l 125 587 b 199 403 146 568 199 514 l 199 47 l 144 0 l 144 356 b 116 494 144 422 131 465 l 116 10 l 104 0 b 110 -16 101 -3 101 -14 b 152 1 119 -19 134 -13 l 152 -74 l 96 -120 "},"Ĺ":{"ha":211,"x_min":0,"x_max":0,"o":"m 31 1050 l 198 1191 l 198 1176 l 31 1036 m 198 141 l 198 47 l 142 0 l 142 94 l 103 60 l 103 981 l 115 992 l 115 82 l 203 156 b 142 256 172 169 142 204 l 142 436 l 198 484 l 198 241 b 229 167 198 201 213 175 l 218 156 m 32 859 b 88 693 57 831 88 779 l 87 47 l 31 0 l 32 647 b -51 837 32 817 -51 837 l 5 884 b 31 859 5 884 16 876 l 31 944 l 87 992 l 87 905 "},"Ļ":{"ha":211,"x_min":0,"x_max":0,"o":"m 32 859 b 88 693 57 831 88 779 l 87 47 l 31 0 l 32 647 b -51 837 32 817 -51 837 l 5 884 b 31 859 5 884 16 876 l 31 944 l 87 992 l 87 905 m 49 -88 l 49 -73 l 88 -106 l 88 -46 l 142 0 l 142 94 l 103 60 l 103 981 l 115 992 l 115 82 l 203 156 b 142 256 172 169 142 204 l 142 436 l 198 484 l 198 241 b 229 167 198 201 213 175 l 218 156 l 198 141 l 198 47 l 144 1 l 144 -74 l 88 -120 "},"Ľ":{"ha":211,"x_min":0,"x_max":0,"o":"m 31 1176 l 31 1190 l 115 1120 l 198 1190 l 198 1176 l 115 1105 m 198 141 l 198 47 l 142 0 l 142 94 l 103 60 l 103 981 l 115 992 l 115 82 l 203 156 b 142 256 172 169 142 204 l 142 436 l 198 484 l 198 241 b 229 167 198 201 213 175 l 218 156 m 32 859 b 88 693 57 831 88 779 l 87 47 l 31 0 l 32 647 b -51 837 32 817 -51 837 l 5 884 b 31 859 5 884 16 876 l 31 944 l 87 992 l 87 905 "},"Ń":{"ha":213,"x_min":0,"x_max":0,"o":"m 31 1050 l 198 1191 l 198 1176 l 31 1036 m 144 929 l 116 906 l 116 71 l 104 60 l 104 897 l 88 883 l 35 838 b 88 676 58 810 88 758 l 88 47 l 32 0 l 32 628 b -51 819 32 799 -51 819 l 5 866 b 32 841 5 866 17 859 l 32 944 l 88 992 l 88 898 l 199 992 l 199 47 l 144 0 "},"Ņ":{"ha":213,"x_min":0,"x_max":0,"o":"m 49 -88 l 49 -73 l 89 -106 l 89 -46 l 144 0 l 144 929 l 116 906 l 116 71 l 104 60 l 104 897 l 88 883 l 35 838 b 88 676 58 810 88 758 l 88 47 l 32 0 l 32 628 b -51 819 32 799 -51 819 l 5 866 b 32 841 5 866 17 859 l 32 944 l 88 992 l 88 898 l 199 992 l 199 47 l 145 1 l 145 -74 l 89 -120 "},"Ň":{"ha":213,"x_min":0,"x_max":0,"o":"m 31 1176 l 31 1190 l 115 1120 l 198 1190 l 198 1176 l 115 1105 m 144 929 l 116 906 l 116 71 l 104 60 l 104 897 l 88 883 l 35 838 b 88 676 58 810 88 758 l 88 47 l 32 0 l 32 628 b -51 819 32 799 -51 819 l 5 866 b 32 841 5 866 17 859 l 32 944 l 88 992 l 88 898 l 199 992 l 199 47 l 144 0 "},"Ō":{"ha":194,"x_min":0,"x_max":0,"o":"m 181 1172 l 14 1172 l 14 1182 l 181 1182 m 84 0 b 14 102 50 8 14 44 l 14 910 l 110 992 b 181 889 145 984 181 947 l 181 81 l 84 0 m 125 904 b 103 971 125 935 116 958 l 97 966 l 97 25 l 125 49 m 69 88 b 86 28 69 61 76 41 l 86 956 l 69 942 l 69 88 "},"Ŏ":{"ha":194,"x_min":0,"x_max":0,"o":"m 97 1113 b 20 1190 54 1113 20 1148 l 34 1190 b 97 1127 34 1155 63 1127 b 161 1190 132 1127 161 1155 l 175 1190 b 97 1113 175 1148 140 1113 m 84 0 b 14 102 50 8 14 44 l 14 910 l 110 992 b 181 889 145 984 181 947 l 181 81 l 84 0 m 125 904 b 103 971 125 935 116 958 l 97 966 l 97 25 l 125 49 m 69 88 b 86 28 69 61 76 41 l 86 956 l 69 942 l 69 88 "},"Ő":{"ha":194,"x_min":0,"x_max":0,"o":"m 142 1066 l 109 1037 l 109 1137 l 164 1183 m 65 1066 l 30 1037 l 30 1137 l 86 1183 m 84 0 b 14 102 50 8 14 44 l 14 910 l 110 992 b 181 889 145 984 181 947 l 181 81 l 84 0 m 125 904 b 103 971 125 935 116 958 l 97 966 l 97 25 l 125 49 m 69 88 b 86 28 69 61 76 41 l 86 956 l 69 942 l 69 88 "},"Ŕ":{"ha":245,"x_min":0,"x_max":0,"o":"m 32 1050 l 199 1191 l 199 1176 l 32 1036 m 203 586 b 145 684 172 598 145 633 l 145 931 l 117 907 l 117 513 m 105 503 l 105 898 l 38 840 b 89 681 61 813 89 762 l 89 490 m 228 89 b 259 15 228 49 243 23 l 243 1 b 172 103 208 8 172 45 l 172 300 b 117 473 172 404 141 451 l 117 9 l 105 0 l 105 481 b 89 490 96 487 90 490 l 89 47 l 34 0 l 34 633 b -51 824 34 803 -51 824 l 5 870 b 34 846 5 870 17 863 l 34 946 l 89 992 l 89 898 l 200 992 l 200 670 b 231 596 200 630 215 604 l 154 530 b 228 346 175 512 228 457 l 228 89 "},"Ŗ":{"ha":245,"x_min":0,"x_max":0,"o":"m 203 586 b 145 684 172 598 145 633 l 145 931 l 117 907 l 117 513 m 105 503 l 105 898 l 38 840 b 89 681 61 813 89 762 l 89 490 m 228 89 b 259 15 228 49 243 23 l 243 1 b 172 103 208 8 172 45 l 172 300 b 117 473 172 404 141 451 l 117 9 l 105 0 l 105 481 b 89 490 96 487 90 490 l 89 47 l 34 0 l 34 633 b -51 824 34 803 -51 824 l 5 870 b 34 846 5 870 17 863 l 34 946 l 89 992 l 89 898 l 200 992 l 200 670 b 231 596 200 630 215 604 l 154 530 b 228 346 175 512 228 457 l 228 89 m 111 -122 l 111 -120 l 72 -88 l 72 -73 l 111 -106 l 111 -46 l 167 1 l 167 -74 l 112 -120 l 112 -122 "},"Ř":{"ha":245,"x_min":0,"x_max":0,"o":"m 32 1176 l 32 1190 l 116 1120 l 199 1190 l 199 1176 l 116 1105 m 203 586 b 145 684 172 598 145 633 l 145 931 l 117 907 l 117 513 m 105 503 l 105 898 l 38 840 b 89 681 61 813 89 762 l 89 490 m 228 89 b 259 15 228 49 243 23 l 243 1 b 172 103 208 8 172 45 l 172 300 b 117 473 172 404 141 451 l 117 9 l 105 0 l 105 481 b 89 490 96 487 90 490 l 89 47 l 34 0 l 34 633 b -51 824 34 803 -51 824 l 5 870 b 34 846 5 870 17 863 l 34 946 l 89 992 l 89 898 l 200 992 l 200 670 b 231 596 200 630 215 604 l 154 530 b 228 346 175 512 228 457 l 228 89 "},"Ś":{"ha":193,"x_min":0,"x_max":0,"o":"m 14 1050 l 181 1191 l 181 1176 l 14 1036 m 69 734 b 86 674 69 707 76 686 l 86 957 l 69 943 m 183 97 b 125 196 153 110 125 145 l 125 584 b 105 663 125 617 118 648 l 97 656 l 97 25 m 84 0 b 14 102 50 8 14 44 l 14 556 l 69 602 l 69 88 b 86 27 69 61 76 41 l 86 647 l 84 646 b 14 748 51 653 14 690 l 14 911 l 110 992 b 181 889 145 984 181 947 l 181 784 l 125 736 l 125 904 b 103 971 125 935 116 959 l 97 966 l 97 670 l 113 684 b 181 569 148 677 181 627 l 181 182 b 212 108 181 142 194 116 l 84 0 "},"Ŝ":{"ha":193,"x_min":0,"x_max":0,"o":"m 139 1141 l 14 1036 l 14 1050 l 130 1148 l 97 1176 l 14 1105 l 14 1120 l 97 1190 l 139 1155 l 181 1191 l 181 1176 l 147 1148 l 181 1120 l 181 1105 m 69 734 b 86 674 69 707 76 686 l 86 957 l 69 943 m 183 97 b 125 196 153 110 125 145 l 125 584 b 105 663 125 617 118 648 l 97 656 l 97 25 m 84 0 b 14 102 50 8 14 44 l 14 556 l 69 602 l 69 88 b 86 27 69 61 76 41 l 86 647 l 84 646 b 14 748 51 653 14 690 l 14 911 l 110 992 b 181 889 145 984 181 947 l 181 784 l 125 736 l 125 904 b 103 971 125 935 116 959 l 97 966 l 97 670 l 113 684 b 181 569 148 677 181 627 l 181 182 b 212 108 181 142 194 116 l 84 0 "},"Ş":{"ha":193,"x_min":0,"x_max":0,"o":"m 69 734 b 86 674 69 707 76 686 l 86 957 l 69 943 m 183 97 b 125 196 153 110 125 145 l 125 584 b 105 663 125 617 118 648 l 97 656 l 97 25 m 84 0 b 14 102 50 8 14 44 l 14 556 l 69 602 l 69 88 b 86 27 69 61 76 41 l 86 647 l 84 646 b 14 748 51 653 14 690 l 14 911 l 110 992 b 181 889 145 984 181 947 l 181 784 l 125 736 l 125 904 b 103 971 125 935 116 959 l 97 966 l 97 670 l 113 684 b 181 569 148 677 181 627 l 181 182 b 212 108 181 142 194 116 l 84 0 m 93 -122 l 93 -120 l 53 -88 l 53 -73 l 93 -106 l 93 -46 l 148 1 l 148 -74 l 94 -120 l 94 -122 "},"Ţ":{"ha":279,"x_min":0,"x_max":0,"o":"m 97 0 l 98 755 b 15 944 98 925 15 944 l 71 992 l 265 992 l 265 763 l 209 715 l 209 944 l 251 980 l 181 980 l 181 71 l 169 60 l 169 980 l 84 980 b 154 801 109 958 154 904 l 153 47 m 14 846 l 69 892 l 69 763 l 14 715 m 84 -88 l 84 -73 l 124 -106 l 124 -46 l 179 1 l 179 -74 l 124 -120 "},"Ť":{"ha":279,"x_min":0,"x_max":0,"o":"m 74 1176 l 74 1190 l 157 1120 l 241 1190 l 241 1176 l 157 1105 m 97 0 l 98 755 b 15 944 98 925 15 944 l 71 992 l 265 992 l 265 763 l 209 715 l 209 944 l 251 980 l 181 980 l 181 71 l 169 60 l 169 980 l 84 980 b 154 801 109 958 154 904 l 153 47 m 14 846 l 69 892 l 69 763 l 14 715 "},"Ũ":{"ha":244,"x_min":0,"x_max":0,"o":"m 88 1082 l 32 1036 l 32 1097 l 88 1144 l 88 1097 l 144 1050 l 144 1097 l 199 1144 l 199 1082 l 144 1036 m 103 0 l 102 0 b 32 102 68 8 32 44 l 32 634 b -51 824 32 804 -51 824 l 5 872 b 32 846 5 872 17 863 l 32 946 l 88 992 l 88 891 l 34 845 b 88 681 58 817 88 765 l 88 88 b 104 27 88 61 95 39 l 104 981 l 116 992 l 116 25 l 152 57 b 144 102 147 69 144 84 l 144 946 l 199 992 l 199 88 b 230 14 199 49 214 22 l 214 0 b 157 46 192 5 170 21 l 119 14 "},"Ū":{"ha":244,"x_min":0,"x_max":0,"o":"m 32 1176 l 32 1190 l 116 1120 l 199 1190 l 199 1176 l 116 1105 m 103 0 l 102 0 b 32 102 68 8 32 44 l 32 634 b -51 824 32 804 -51 824 l 5 872 b 32 846 5 872 17 863 l 32 946 l 88 992 l 88 891 l 34 845 b 88 681 58 817 88 765 l 88 88 b 104 27 88 61 95 39 l 104 981 l 116 992 l 116 25 l 152 57 b 144 102 147 69 144 84 l 144 946 l 199 992 l 199 88 b 230 14 199 49 214 22 l 214 0 b 157 46 192 5 170 21 l 119 14 "},"Ŭ":{"ha":244,"x_min":0,"x_max":0,"o":"m 116 1113 b 38 1190 73 1113 38 1148 l 52 1190 b 116 1127 52 1155 81 1127 b 179 1190 150 1127 179 1155 l 193 1190 b 116 1113 193 1148 159 1113 m 103 0 l 102 0 b 32 102 68 8 32 44 l 32 634 b -51 824 32 804 -51 824 l 5 872 b 32 846 5 872 17 863 l 32 946 l 88 992 l 88 891 l 34 845 b 88 681 58 817 88 765 l 88 88 b 104 27 88 61 95 39 l 104 981 l 116 992 l 116 25 l 152 57 b 144 102 147 69 144 84 l 144 946 l 199 992 l 199 88 b 230 14 199 49 214 22 l 214 0 b 157 46 192 5 170 21 l 119 14 "},"Ů":{"ha":244,"x_min":0,"x_max":0,"o":"m 116 1190 b 193 1113 159 1190 193 1156 b 116 1036 193 1071 159 1036 b 38 1113 73 1036 38 1071 b 116 1190 38 1156 73 1190 m 116 1050 b 179 1113 150 1050 179 1078 b 116 1176 179 1148 150 1176 b 52 1113 81 1176 52 1148 b 116 1050 52 1078 81 1050 m 103 0 l 102 0 b 32 102 68 8 32 44 l 32 634 b -51 824 32 804 -51 824 l 5 872 b 32 846 5 872 17 863 l 32 946 l 88 992 l 88 891 l 34 845 b 88 681 58 817 88 765 l 88 88 b 104 27 88 61 95 39 l 104 981 l 116 992 l 116 25 l 152 57 b 144 102 147 69 144 84 l 144 946 l 199 992 l 199 88 b 230 14 199 49 214 22 l 214 0 b 157 46 192 5 170 21 l 119 14 "},"Ű":{"ha":244,"x_min":0,"x_max":0,"o":"m 161 1066 l 127 1037 l 127 1137 l 183 1183 m 83 1066 l 49 1037 l 49 1137 l 104 1183 m 103 0 l 102 0 b 32 102 68 8 32 44 l 32 634 b -51 824 32 804 -51 824 l 5 872 b 32 846 5 872 17 863 l 32 946 l 88 992 l 88 891 l 34 845 b 88 681 58 817 88 765 l 88 88 b 104 27 88 61 95 39 l 104 981 l 116 992 l 116 25 l 152 57 b 144 102 147 69 144 84 l 144 946 l 199 992 l 199 88 b 230 14 199 49 214 22 l 214 0 b 157 46 192 5 170 21 l 119 14 "},"Ų":{"ha":244,"x_min":0,"x_max":0,"o":"m 94 -122 l 94 -54 b 91 3 90 -37 88 -22 b 32 102 61 15 32 50 l 32 634 b -51 824 32 804 -51 824 l 5 872 b 32 846 5 872 17 863 l 32 946 l 88 992 l 88 891 l 34 845 b 88 681 58 817 88 765 l 88 88 b 104 27 88 61 95 39 l 104 981 l 116 992 l 116 25 l 152 57 b 144 102 147 69 144 84 l 144 946 l 199 992 l 199 88 b 230 14 199 49 214 22 l 214 0 b 157 46 192 5 170 21 l 119 14 l 103 0 l 102 0 b 109 -56 101 -3 95 -38 b 149 -74 127 -76 149 -74 "},"Ŵ":{"ha":296,"x_min":0,"x_max":0,"o":"m 255 1120 l 255 1105 l 171 1176 l 88 1105 l 88 1120 l 171 1190 m 214 0 b 157 46 193 5 171 21 l 119 14 l 103 0 b 32 102 68 8 32 44 l 32 634 b -51 824 32 804 -51 824 l 5 872 b 32 846 5 872 17 863 l 32 946 l 88 992 l 88 891 l 34 845 b 88 681 58 817 88 765 l 88 88 b 104 27 88 61 95 39 l 104 981 l 116 992 l 116 25 l 153 57 b 144 102 147 69 144 84 l 144 946 l 199 992 l 199 88 b 221 21 199 56 208 32 l 227 25 l 227 943 l 282 990 l 282 58 l 214 0 "},"Ŷ":{"ha":225,"x_min":0,"x_max":0,"o":"m 211 1120 l 211 1105 l 127 1176 l 44 1105 l 44 1120 l 127 1190 m 103 0 b 32 102 68 8 32 44 l 32 304 b -51 495 32 475 -51 495 l 5 542 b 88 352 5 542 88 491 l 88 88 b 110 21 88 56 97 32 l 116 25 l 116 527 b 44 591 83 575 44 591 l 44 633 b -39 823 44 803 -39 823 l 16 870 b 44 845 16 870 29 862 l 44 944 l 100 992 l 100 891 l 44 845 b 100 679 68 817 100 765 l 100 639 b 116 626 100 639 105 634 l 116 981 l 127 992 l 127 615 b 155 583 135 606 146 596 l 155 944 l 211 992 l 211 618 l 160 576 b 211 422 186 539 211 488 l 211 91 l 155 44 l 103 0 m 155 376 b 127 506 155 432 144 475 l 127 35 l 155 59 "},"Ź":{"ha":198,"x_min":0,"x_max":0,"o":"m 23 1050 l 190 1191 l 190 1176 l 23 1036 m 41 0 l 23 0 l 102 506 l 23 440 l 23 554 b -60 744 23 725 -60 744 l -5 792 b 79 601 -5 792 79 740 l 79 501 l 104 523 l 176 979 l 23 851 l 23 944 l 79 991 l 79 912 l 174 992 l 190 992 l 118 535 l 190 595 l 190 297 b 221 223 190 258 205 231 l 205 209 b 134 313 171 218 134 255 l 134 534 l 116 519 l 37 10 l 190 141 l 190 47 l 134 0 l 134 80 "},"Ż":{"ha":198,"x_min":0,"x_max":0,"o":"m 134 1072 l 79 1025 l 79 1134 l 134 1182 m 41 0 l 23 0 l 102 506 l 23 440 l 23 554 b -60 744 23 725 -60 744 l -5 792 b 79 601 -5 792 79 740 l 79 501 l 104 523 l 176 979 l 23 851 l 23 944 l 79 991 l 79 912 l 174 992 l 190 992 l 118 535 l 190 595 l 190 297 b 221 223 190 258 205 231 l 205 209 b 134 313 171 218 134 255 l 134 534 l 116 519 l 37 10 l 190 141 l 190 47 l 134 0 l 134 80 "},"Đ":{"ha":213,"x_min":0,"x_max":0,"o":"m 116 514 l 144 514 l 144 756 b 116 894 144 822 131 865 m 103 1 b 32 103 68 8 32 45 l 32 502 l -51 502 l -37 514 l 32 514 l 32 558 b -51 748 32 728 -51 748 l 5 794 b 88 605 5 794 88 744 l 88 514 l 104 514 l 104 911 b 88 929 98 919 93 925 l 88 817 l 32 770 l 32 883 l 88 929 b 60 946 73 943 60 946 l 116 993 b 199 802 116 993 199 941 l 199 82 l 103 1 m 144 50 l 144 502 l 116 502 l 116 25 m 88 89 b 104 28 88 61 95 42 l 104 502 l 88 502 l 88 89 "},"Ħ":{"ha":192,"x_min":0,"x_max":0,"o":"m 236 582 l 179 582 l 179 47 l 124 0 l 124 502 l 96 502 l 96 71 l 84 60 l 84 502 l 68 502 l 68 47 l 13 0 l 13 582 l -69 582 l -56 594 l 13 594 l 13 944 l 68 992 l 68 594 l 84 594 l 84 912 l 96 921 l 96 594 l 124 594 l 124 944 l 179 992 l 179 594 l 250 594 m 124 582 l 96 582 l 96 514 l 124 514 m 84 514 l 84 582 l 68 582 l 68 514 "},"Ĳ":{"ha":324,"x_min":0,"x_max":0,"o":"m 310 920 l 310 141 l 299 131 l 299 910 m 144 292 b 116 429 144 358 131 402 l 116 10 l 103 0 b 32 102 68 8 32 44 l 32 654 b -51 844 32 824 -51 844 l 5 891 b 32 866 5 891 17 883 l 32 944 l 88 992 l 88 912 l 32 865 b 88 700 57 837 88 785 l 88 506 l 104 520 l 104 911 l 116 920 l 116 529 b 144 503 116 529 128 521 l 144 549 l 199 595 l 199 515 l 160 483 b 199 339 179 451 199 405 l 199 61 l 228 86 b 227 102 227 90 227 96 l 227 653 b 144 843 227 823 144 843 l 199 890 b 227 865 199 890 212 882 l 227 943 l 282 991 l 282 911 l 227 865 b 282 699 251 837 282 785 l 282 117 l 144 0 m 104 448 b 88 465 98 455 94 461 l 88 88 b 104 28 88 61 95 41 "},"Ŀ":{"ha":211,"x_min":0,"x_max":0,"o":"m 145 1072 l 89 1025 l 89 1134 l 145 1182 m 198 141 l 198 47 l 142 0 l 142 94 l 103 60 l 103 968 l 115 977 l 115 82 l 203 156 b 142 256 172 169 142 204 l 142 436 l 198 484 l 198 241 b 229 167 198 201 213 175 l 218 156 m 32 859 b 88 693 57 831 88 779 l 87 47 l 31 0 l 32 647 b -51 837 32 817 -51 837 l 5 884 b 31 859 5 884 16 876 l 31 944 l 87 992 l 87 905 "},"Ŋ":{"ha":213,"x_min":0,"x_max":0,"o":"m 144 929 l 116 906 l 116 71 l 104 60 l 104 897 l 88 883 l 35 838 b 88 676 58 810 88 758 l 88 47 l 32 0 l 32 628 b -51 819 32 799 -51 819 l 5 866 b 32 841 5 866 17 859 l 32 944 l 88 992 l 88 898 l 199 992 l 199 -93 l 144 -139 "},"Ŧ":{"ha":278,"x_min":0,"x_max":0,"o":"m 169 594 l 169 980 l 84 980 b 154 801 109 958 154 904 l 154 594 m 69 763 l 14 715 l 14 846 l 69 892 m 97 0 l 98 582 l 15 582 l 29 594 l 98 594 l 98 755 b 15 944 98 925 15 944 l 71 992 l 264 992 l 264 763 l 208 715 l 208 944 l 251 980 l 181 980 l 181 594 l 264 594 l 250 582 l 181 582 l 181 71 l 169 60 l 169 582 l 154 582 l 153 47 "},"ā":{"ha":172,"x_min":0,"x_max":0,"o":"m 163 981 l 9 981 l 9 991 l 163 991 m 84 794 b 155 691 119 786 155 749 l 155 58 l 87 0 b 16 102 53 8 16 44 l 16 469 l 100 539 l 100 606 l 87 595 b 16 698 53 603 16 640 l 16 736 l 84 794 m 72 683 b 100 611 72 646 84 622 l 100 706 b 72 778 100 742 87 767 l 72 683 m 72 88 b 100 16 72 51 84 25 l 100 524 l 72 501 l 72 88 "},"ă":{"ha":174,"x_min":0,"x_max":0,"o":"m 87 903 b 9 980 44 903 9 938 l 23 980 b 87 917 23 946 52 917 b 150 980 122 917 150 946 l 164 980 b 87 903 164 938 130 903 m 86 794 b 156 692 120 787 156 750 l 156 58 l 88 0 b 17 103 53 8 17 45 l 17 469 l 101 539 l 101 606 l 88 596 b 17 698 53 603 17 640 l 17 736 l 86 794 m 101 706 b 73 778 101 743 88 769 l 73 684 b 101 611 73 647 86 622 m 101 525 l 73 502 l 73 89 b 101 16 73 52 86 27 "},"ą":{"ha":167,"x_min":0,"x_max":0,"o":"m 84 0 b 93 -56 84 -3 78 -38 b 132 -74 110 -76 132 -74 l 76 -122 l 76 -54 b 75 3 73 -37 71 -22 b 14 102 44 15 14 50 l 14 469 l 97 539 l 97 606 l 84 595 b 14 698 51 603 14 640 l 14 736 l 82 794 b 153 691 117 786 153 749 l 153 58 m 69 683 b 97 611 69 646 82 622 l 97 706 b 69 778 97 742 84 767 l 69 683 m 69 88 b 97 16 69 51 82 25 l 97 524 l 69 501 "},"ć":{"ha":167,"x_min":0,"x_max":0,"o":"m 153 962 l 14 845 l 14 859 l 153 976 m 97 550 l 97 706 b 69 778 97 742 84 767 l 69 88 b 97 16 69 51 82 25 l 97 196 l 153 243 l 153 58 l 84 0 b 14 102 50 8 14 44 l 14 736 l 82 794 b 153 691 117 786 153 749 l 153 596 "},"ĉ":{"ha":167,"x_min":0,"x_max":0,"o":"m 14 933 l 83 992 l 153 933 l 153 919 l 83 978 l 14 919 m 97 550 l 97 706 b 69 778 97 742 84 767 l 69 88 b 97 16 69 51 82 25 l 97 196 l 153 243 l 153 58 l 84 0 b 14 102 50 8 14 44 l 14 736 l 82 794 b 153 691 117 786 153 749 l 153 596 "},"ċ":{"ha":167,"x_min":0,"x_max":0,"o":"m 111 885 l 56 838 l 56 948 l 111 994 m 97 550 l 97 706 b 69 778 97 742 84 767 l 69 88 b 97 16 69 51 82 25 l 97 196 l 153 243 l 153 58 l 84 0 b 14 102 50 8 14 44 l 14 736 l 82 794 b 153 691 117 786 153 749 l 153 596 "},"č":{"ha":167,"x_min":0,"x_max":0,"o":"m 153 978 l 83 919 l 14 978 l 14 992 l 83 933 l 153 992 m 97 550 l 97 706 b 69 778 97 742 84 767 l 69 88 b 97 16 69 51 82 25 l 97 196 l 153 243 l 153 58 l 84 0 b 14 102 50 8 14 44 l 14 736 l 82 794 b 153 691 117 786 153 749 l 153 596 "},"ď":{"ha":167,"x_min":0,"x_max":0,"o":"m 153 1166 l 83 1108 l 14 1166 l 14 1181 l 83 1122 l 153 1181 m 84 1 b 14 103 51 8 14 45 l 14 747 l 89 810 b 14 951 68 932 14 951 l 64 993 b 153 699 64 993 153 959 l 153 58 m 71 89 b 93 21 71 57 80 34 l 97 25 l 97 699 b 91 797 97 737 95 770 l 71 780 l 71 89 "},"ē":{"ha":183,"x_min":0,"x_max":0,"o":"m 169 981 l 14 981 l 14 991 l 169 991 m 161 58 l 93 0 b 22 102 58 8 22 44 l 22 736 l 90 793 b 161 682 125 786 161 740 l 161 434 l 78 363 l 78 88 b 105 16 78 51 90 25 l 105 196 l 161 243 m 105 705 b 78 778 105 742 93 767 l 78 378 l 105 402 l 105 705 "},"ĕ":{"ha":183,"x_min":0,"x_max":0,"o":"m 91 903 b 14 980 49 903 14 938 l 28 980 b 91 917 28 946 57 917 b 155 980 126 917 155 946 l 169 980 b 91 903 169 938 134 903 m 161 58 l 93 0 b 22 102 58 8 22 44 l 22 736 l 90 793 b 161 682 125 786 161 740 l 161 434 l 78 363 l 78 88 b 105 16 78 51 90 25 l 105 196 l 161 243 m 105 705 b 78 778 105 742 93 767 l 78 378 l 105 402 l 105 705 "},"ė":{"ha":167,"x_min":0,"x_max":0,"o":"m 111 885 l 56 838 l 56 948 l 111 994 m 153 58 l 84 0 b 14 102 50 8 14 44 l 14 736 l 82 793 b 153 682 117 786 153 740 l 153 434 l 69 363 l 69 88 b 97 16 69 51 82 25 l 97 196 l 153 243 m 97 705 b 69 778 97 742 84 767 l 69 378 l 97 402 l 97 705 "},"ę":{"ha":167,"x_min":0,"x_max":0,"o":"m 75 -54 b 74 3 72 -37 69 -22 b 14 102 43 15 14 50 l 14 736 l 82 793 b 153 682 117 786 153 740 l 153 434 l 69 363 l 69 88 b 97 16 69 51 82 25 l 97 196 l 153 243 l 153 58 l 84 0 b 91 -56 83 -5 76 -38 b 131 -74 109 -76 131 -74 l 75 -122 m 69 378 l 97 402 l 97 705 b 69 778 97 742 84 767 "},"ě":{"ha":167,"x_min":0,"x_max":0,"o":"m 153 978 l 83 919 l 14 978 l 14 992 l 83 933 l 153 992 m 153 59 l 84 1 b 14 103 50 8 14 45 l 14 736 l 82 794 b 153 682 117 787 153 740 l 153 435 l 69 365 l 69 89 b 97 16 69 52 82 27 l 97 197 l 153 243 m 97 706 b 69 778 97 743 84 769 l 69 378 l 97 403 l 97 706 "},"ĝ":{"ha":167,"x_min":0,"x_max":0,"o":"m 14 933 l 83 992 l 153 933 l 153 919 l 83 978 l 14 919 m 153 49 l 110 13 b 153 -152 131 -15 153 -65 l 97 -197 b 14 1 97 -27 14 1 l 97 71 l 97 109 l 84 98 b 14 200 50 105 14 142 l 14 736 l 82 794 b 153 691 117 786 153 749 m 69 186 b 97 115 69 149 82 124 l 97 706 b 69 778 97 743 84 767 l 69 186 m 97 56 l 80 42 b 97 28 84 39 90 35 "},"ğ":{"ha":183,"x_min":0,"x_max":0,"o":"m 91 903 b 14 980 49 903 14 938 l 28 980 b 91 917 28 946 57 917 b 155 980 126 917 155 946 l 169 980 b 91 903 169 938 134 903 m 161 49 l 118 13 b 161 -152 139 -15 161 -65 l 105 -197 b 22 1 105 -27 22 1 l 105 71 l 105 109 l 93 98 b 22 200 58 105 22 142 l 22 736 l 90 794 b 161 691 125 786 161 749 m 78 186 b 105 115 78 149 90 124 l 105 706 b 78 778 105 743 93 767 l 78 186 m 105 56 l 88 42 b 105 28 93 39 98 35 "},"ġ":{"ha":167,"x_min":0,"x_max":0,"o":"m 111 885 l 56 838 l 56 948 l 111 994 m 153 49 l 110 13 b 153 -152 131 -15 153 -65 l 97 -197 b 14 1 97 -27 14 1 l 97 71 l 97 109 l 84 98 b 14 200 50 105 14 142 l 14 736 l 82 794 b 153 691 117 786 153 749 m 69 186 b 97 115 69 149 82 124 l 97 706 b 69 778 97 743 84 767 l 69 186 m 97 56 l 80 42 b 97 28 84 39 90 35 "},"ģ":{"ha":167,"x_min":0,"x_max":0,"o":"m 90 875 l 56 846 l 56 947 l 111 993 m 153 49 l 110 13 b 153 -152 131 -15 153 -65 l 97 -197 b 14 1 97 -27 14 1 l 97 71 l 97 109 l 84 98 b 14 200 50 105 14 142 l 14 736 l 82 794 b 153 691 117 786 153 749 m 69 186 b 97 115 69 149 82 124 l 97 706 b 69 778 97 743 84 767 l 69 186 m 97 56 l 80 42 b 97 28 84 39 90 35 "},"ĥ":{"ha":168,"x_min":0,"x_max":0,"o":"m 14 1124 l 83 1183 l 153 1124 l 153 1110 l 83 1169 l 14 1110 m 83 792 b 154 690 118 785 154 748 l 154 47 l 98 0 l 98 704 b 71 777 98 741 86 766 l 71 47 l 15 0 l 15 944 l 71 992 l 71 781 l 83 792 "},"ĩ":{"ha":82,"x_min":0,"x_max":0,"o":"m 13 880 l -29 845 l -29 905 l -15 918 l 54 860 l 54 895 l 110 941 l 110 892 l 54 845 m 68 47 l 13 0 l 13 749 l 68 795 "},"ī":{"ha":81,"x_min":0,"x_max":0,"o":"m 118 981 l -37 981 l -37 991 l 118 991 m 68 47 l 13 0 l 13 749 l 68 795 "},"ĭ":{"ha":81,"x_min":0,"x_max":0,"o":"m 41 903 b -37 980 -2 903 -37 938 l -23 980 b 41 917 -23 946 6 917 b 104 980 75 917 104 946 l 118 980 b 41 903 118 938 83 903 m 68 47 l 13 0 l 13 749 l 68 795 "},"į":{"ha":86,"x_min":0,"x_max":0,"o":"m 69 841 l 14 795 l 14 869 l 69 917 m 16 -54 b 14 1 13 -38 9 -23 l 14 749 l 69 795 l 69 47 l 47 29 b 24 0 41 23 27 12 b 31 -56 24 0 16 -37 b 72 -74 49 -76 72 -74 l 15 -122 "},"ĵ":{"ha":83,"x_min":0,"x_max":0,"o":"m -28 933 l 42 992 l 111 933 l 111 919 l 42 978 l -28 919 m 69 841 l 14 795 l 14 869 l 69 917 m 69 -94 l 14 -140 l 14 749 l 69 795 "},"ķ":{"ha":167,"x_min":0,"x_max":0,"o":"m 124 596 l 152 549 l 152 47 l 96 0 l 96 501 l 69 549 l 69 47 l 14 0 l 14 944 l 69 992 l 69 749 l 124 795 b 181 644 124 795 142 644 l 125 596 b 69 745 90 596 72 725 l 69 550 m 30 -88 l 30 -73 l 69 -106 l 69 -46 l 125 1 l 125 -74 l 69 -120 "},"ĺ":{"ha":83,"x_min":0,"x_max":0,"o":"m 111 1153 l -28 1036 l -28 1050 l 111 1167 m 69 47 l 14 0 l 14 944 l 69 992 "},"ļ":{"ha":82,"x_min":0,"x_max":0,"o":"m 5 -122 l 5 -120 l -35 -88 l -35 -73 l 5 -106 l 5 -46 l 27 -28 b 1 -7 15 -31 1 -23 b 13 15 1 -3 1 3 l 13 944 l 68 992 l 68 47 l 14 0 b 20 -16 10 -3 10 -14 b 61 1 28 -19 44 -13 l 60 -74 l 6 -120 l 6 -122 "},"ľ":{"ha":83,"x_min":0,"x_max":0,"o":"m 111 1166 l 42 1108 l -28 1166 l -28 1181 l 42 1122 l 111 1181 m 69 47 l 14 0 l 14 944 l 69 992 "},"ń":{"ha":167,"x_min":0,"x_max":0,"o":"m 153 962 l 14 845 l 14 859 l 153 976 m 97 735 l 96 735 l 69 711 l 69 47 l 14 0 l 14 749 l 69 796 l 69 726 l 153 796 l 153 47 l 97 0 "},"ņ":{"ha":167,"x_min":0,"x_max":0,"o":"m 97 735 l 69 711 l 69 47 l 14 0 l 14 749 l 69 796 l 69 726 l 153 796 l 153 47 l 97 0 m 36 -88 l 36 -73 l 75 -106 l 75 -46 l 131 1 l 131 -74 l 75 -120 "},"ň":{"ha":167,"x_min":0,"x_max":0,"o":"m 153 978 l 83 919 l 14 978 l 14 992 l 83 933 l 153 992 m 97 735 l 96 735 l 69 711 l 69 47 l 14 0 l 14 749 l 69 796 l 69 726 l 153 796 l 153 47 l 97 0 "},"ō":{"ha":167,"x_min":0,"x_max":0,"o":"m 153 981 l 14 981 l 14 991 l 153 991 m 82 795 b 153 693 116 788 153 751 l 153 58 l 83 0 b 14 102 50 8 14 44 l 14 737 l 82 795 m 69 88 b 97 16 69 51 82 25 l 97 707 b 69 780 97 744 84 770 l 69 88 "},"ŏ":{"ha":172,"x_min":0,"x_max":0,"o":"m 87 903 b 9 980 44 903 9 938 l 23 980 b 87 917 23 946 51 917 b 149 980 122 917 149 946 l 163 980 b 87 903 163 938 130 903 m 86 795 b 156 693 119 788 156 751 l 156 58 l 87 0 b 17 102 53 8 17 44 l 17 737 l 86 795 m 73 88 b 101 16 73 51 86 25 l 101 707 b 73 780 101 744 88 770 l 73 88 "},"ő":{"ha":167,"x_min":0,"x_max":0,"o":"m 126 875 l 91 846 l 91 947 l 147 993 m 53 875 l 20 846 l 20 947 l 75 993 m 82 795 b 153 693 117 788 153 751 l 153 58 l 84 0 b 14 102 50 8 14 44 l 14 737 l 82 795 m 69 88 b 97 16 69 51 82 25 l 97 707 b 69 780 97 744 84 770 l 69 88 "},"ŕ":{"ha":167,"x_min":0,"x_max":0,"o":"m 153 962 l 14 845 l 14 859 l 153 976 m 14 0 l 14 749 l 69 796 l 69 726 l 153 796 l 153 645 l 97 597 l 97 735 l 69 711 l 69 47 "},"ŗ":{"ha":168,"x_min":0,"x_max":0,"o":"m -32 -88 l -32 -73 l 7 -106 l 7 -46 l 28 -28 b 2 -7 16 -31 2 -23 b 6 5 2 -2 3 1 b 15 15 7 7 10 12 l 15 749 l 71 796 l 71 726 l 154 796 l 154 645 l 98 597 l 98 735 l 71 711 l 71 47 l 15 0 b 21 -16 12 -3 12 -14 b 63 1 30 -19 45 -13 l 63 -74 l 7 -120 "},"ř":{"ha":167,"x_min":0,"x_max":0,"o":"m 153 978 l 83 919 l 14 978 l 14 992 l 83 933 l 153 992 m 14 0 l 14 749 l 69 796 l 69 726 l 153 796 l 153 645 l 97 597 l 97 735 l 69 711 l 69 47 "},"ś":{"ha":171,"x_min":0,"x_max":0,"o":"m 153 962 l 14 845 l 14 859 l 153 976 m 84 0 b 14 102 50 8 14 44 l 14 468 l 69 515 l 69 88 b 97 16 69 51 82 25 l 97 521 b 79 600 97 553 90 584 l 14 545 l 14 747 l 69 794 l 69 606 l 86 620 b 103 613 91 619 97 617 b 69 747 80 654 69 747 l 125 793 b 181 641 125 793 144 641 l 125 594 l 124 594 b 153 506 141 573 153 542 l 153 58 l 97 10 l 84 0 "},"ŝ":{"ha":171,"x_min":0,"x_max":0,"o":"m 14 933 l 83 992 l 153 933 l 153 919 l 83 978 l 14 919 m 84 0 b 14 102 50 8 14 44 l 14 468 l 69 515 l 69 88 b 97 16 69 51 82 25 l 97 521 b 79 600 97 553 90 584 l 14 545 l 14 747 l 69 794 l 69 606 l 86 620 b 103 613 91 619 97 617 b 69 747 80 654 69 747 l 125 793 b 181 641 125 793 144 641 l 125 594 l 124 594 b 153 506 141 573 153 542 l 153 58 l 97 10 l 84 0 "},"ş":{"ha":171,"x_min":0,"x_max":0,"o":"m 37 -88 l 37 -73 l 76 -106 l 76 -46 l 97 -28 b 72 -7 86 -31 72 -23 b 74 3 72 -3 73 0 b 14 102 43 15 14 50 l 14 468 l 69 515 l 69 88 b 97 16 69 51 82 25 l 97 521 b 79 600 97 553 90 584 l 14 545 l 14 747 l 69 794 l 69 606 l 86 620 b 103 613 91 619 97 617 b 69 747 80 654 69 747 l 125 793 b 181 641 125 793 144 641 l 125 594 l 124 594 b 153 506 141 573 153 542 l 153 58 l 97 10 l 84 0 b 90 -16 81 -3 81 -14 b 132 1 100 -19 115 -13 l 132 -74 l 76 -120 "},"ţ":{"ha":82,"x_min":0,"x_max":0,"o":"m -35 -88 l -35 -73 l 5 -106 l 5 -46 l 27 -28 b 0 -7 14 -31 0 -23 b 2 2 0 -3 1 0 b 13 14 3 6 8 12 l 13 784 l -30 784 l -15 796 l 13 796 l 13 852 l 68 899 l 68 796 l 152 796 l 152 744 l 96 698 l 96 749 l 137 784 l 68 784 l 68 47 l 13 0 b 19 -16 9 -3 9 -14 b 60 1 28 -19 43 -13 l 60 -74 l 5 -120 "},"ť":{"ha":82,"x_min":0,"x_max":0,"o":"m 124 978 l 54 919 l -15 978 l -15 992 l 54 933 l 124 992 m 153 796 l 153 744 l 97 698 l 97 749 l 138 784 l 69 784 l 69 47 l 14 0 l 14 784 l -29 784 l -14 796 l 14 796 l 14 852 l 69 899 l 69 796 "},"ũ":{"ha":167,"x_min":0,"x_max":0,"o":"m 56 880 l 14 845 l 14 905 l 29 918 l 97 860 l 97 895 l 153 941 l 153 892 l 97 845 m 97 71 l 14 0 l 14 749 l 69 796 l 69 59 l 97 82 l 97 749 l 153 796 l 153 47 l 97 0 "},"ū":{"ha":167,"x_min":0,"x_max":0,"o":"m 153 981 l 14 981 l 14 991 l 153 991 m 97 71 l 14 0 l 14 749 l 69 796 l 69 59 l 97 82 l 97 749 l 153 796 l 153 47 l 97 0 "},"ŭ":{"ha":168,"x_min":0,"x_max":0,"o":"m 83 903 b 7 980 41 903 7 938 l 21 980 b 83 917 21 946 49 917 b 147 980 119 917 147 946 l 161 980 b 83 903 161 938 126 903 m 97 71 l 14 0 l 14 749 l 69 796 l 69 59 l 97 82 l 97 749 l 153 796 l 153 47 l 97 0 "},"ů":{"ha":153,"x_min":0,"x_max":0,"o":"m 76 986 b 146 917 115 986 146 955 b 76 847 146 877 115 847 b 7 917 38 847 7 877 b 76 986 7 955 38 986 m 76 861 b 132 917 108 861 132 885 b 76 972 132 947 108 972 b 21 917 46 972 21 947 b 76 861 21 885 46 861 m 97 71 l 14 0 l 14 749 l 69 796 l 69 59 l 97 82 l 97 749 l 153 796 l 153 47 l 97 0 "},"ű":{"ha":167,"x_min":0,"x_max":0,"o":"m 126 875 l 91 846 l 91 947 l 147 993 m 53 875 l 20 846 l 20 947 l 75 993 m 97 71 l 14 0 l 14 749 l 69 796 l 69 59 l 97 82 l 97 749 l 153 796 l 153 47 l 97 0 "},"ų":{"ha":167,"x_min":0,"x_max":0,"o":"m 97 71 l 14 0 l 14 749 l 69 796 l 69 59 l 97 82 l 97 749 l 153 796 l 153 47 l 97 0 m 58 -122 l 58 -54 b 57 5 54 -37 51 -22 l 66 0 b 73 -56 66 0 58 -37 b 113 -74 90 -76 113 -74 "},"ŵ":{"ha":250,"x_min":0,"x_max":0,"o":"m 56 933 l 125 992 l 194 933 l 194 919 l 125 978 l 56 919 m 168 0 b 120 31 150 3 134 14 l 84 0 b 14 102 50 8 14 44 l 14 749 l 69 796 l 69 88 b 91 21 69 56 79 32 l 115 39 b 97 102 104 57 97 78 l 97 749 l 153 796 l 153 88 b 181 16 153 51 166 25 l 181 749 l 236 796 l 236 58 l 181 10 l 168 0 "},"ŷ":{"ha":167,"x_min":0,"x_max":0,"o":"m 14 933 l 83 992 l 153 933 l 153 919 l 83 978 l 14 919 m 97 -197 b 14 1 97 -27 14 1 l 30 15 l 97 71 l 97 97 b 14 201 59 97 14 137 l 14 748 l 69 795 l 69 188 b 97 115 69 150 82 125 l 97 748 l 153 795 l 153 69 l 101 24 b 152 -152 124 0 152 -52 l 97 -197 m 80 42 b 97 28 84 39 90 35 l 97 57 "},"ź":{"ha":167,"x_min":0,"x_max":0,"o":"m 153 962 l 14 845 l 14 859 l 153 976 m 98 -197 b 15 1 98 -27 15 1 l 97 71 l 97 302 b 14 493 97 472 14 493 l 97 564 l 97 734 l 69 711 l 69 620 l 14 574 l 14 748 l 69 795 l 69 725 l 153 795 l 153 596 l 97 549 l 79 532 b 153 352 101 515 153 461 l 153 47 l 112 12 b 153 -152 132 -16 153 -66 l 98 -197 m 81 42 b 97 28 86 39 91 35 l 97 57 "},"ż":{"ha":167,"x_min":0,"x_max":0,"o":"m 111 885 l 56 838 l 56 948 l 111 994 m 98 -197 b 15 1 98 -27 15 1 l 97 71 l 97 302 b 14 493 97 472 14 493 l 97 564 l 97 734 l 69 711 l 69 620 l 14 574 l 14 748 l 69 795 l 69 725 l 153 795 l 153 596 l 97 549 l 79 532 b 153 352 101 515 153 461 l 153 47 l 112 12 b 153 -152 132 -16 153 -66 l 98 -197 m 81 42 b 97 28 86 39 91 35 l 97 57 "},"đ":{"ha":167,"x_min":0,"x_max":0,"o":"m 153 58 l 84 0 b 14 103 50 8 14 45 l 14 747 l 89 809 b 66 888 83 843 74 868 l 14 844 l 14 859 l 60 898 b 14 950 38 941 14 950 l 63 992 b 110 940 63 992 87 983 l 153 976 l 153 962 l 115 929 b 153 699 134 887 153 816 m 97 25 l 97 699 b 90 796 97 737 95 770 l 69 779 l 69 88 b 91 21 69 56 80 32 "},"ħ":{"ha":167,"x_min":0,"x_max":0,"o":"m 82 792 b 153 690 117 785 153 748 l 153 47 l 97 0 l 97 704 b 69 777 97 741 84 766 l 69 47 l 14 0 l 14 944 l 69 992 l 69 855 l 153 855 l 153 846 l 69 846 l 69 781 l 82 792 "},"ĳ":{"ha":167,"x_min":0,"x_max":0,"o":"m 153 841 l 97 795 l 97 869 l 153 917 m 69 841 l 14 795 l 14 869 l 69 917 m 153 -94 l 97 -140 l 97 749 l 153 795 m 69 47 l 14 0 l 14 749 l 69 795 "},"ĸ":{"ha":167,"x_min":0,"x_max":0,"o":"m 124 399 l 153 352 l 153 47 l 97 0 l 97 304 l 69 352 l 69 47 l 14 0 l 14 748 l 69 795 l 69 552 l 125 598 b 181 447 125 598 144 447 l 125 399 b 69 549 90 399 72 527 l 69 353 "},"ŀ":{"ha":83,"x_min":0,"x_max":0,"o":"m 69 1072 l 14 1025 l 14 1134 l 69 1182 m 69 47 l 14 0 l 14 944 l 69 992 "},"ŉ":{"ha":167,"x_min":0,"x_max":0,"o":"m 49 875 l 14 846 l 14 947 l 69 993 m 97 735 l 69 711 l 69 47 l 14 0 l 14 749 l 69 796 l 69 726 l 153 796 l 153 47 l 97 0 "},"ŋ":{"ha":167,"x_min":0,"x_max":0,"o":"m 97 735 l 69 711 l 69 47 l 14 0 l 14 749 l 69 796 l 69 726 l 153 796 l 153 -75 l 97 -123 "},"ŧ":{"ha":82,"x_min":0,"x_max":0,"o":"m 152 795 l 152 721 l 96 674 l 96 749 l 137 784 l 68 784 l 68 47 l 13 0 l 13 784 l -28 784 l -15 795 l 13 795 l 13 819 l -28 819 l -15 831 l 13 831 l 13 852 l 68 899 l 68 831 l 152 831 l 139 819 l 68 819 l 68 795 "}}}
